<svg xmlns="http://www.w3.org/2000/svg" id="Livello_2" data-name="Livello 2" viewBox="0 0 61.87 70.51"><defs><style>      .cls-1 {        fill: none;        stroke: #ef2b89;        stroke-miterlimit: 10;        stroke-width: 1.4px;      }    </style></defs><g id="Livello_1-2" data-name="Livello 1"><path id="Icon_awesome-user" data-name="Icon awesome-user" class="cls-1" d="m30.94,35.25c9.54,0,17.28-7.73,17.28-17.28S40.48.7,30.94.7,13.66,8.44,13.66,17.98c0,9.54,7.73,17.28,17.27,17.28h0Zm12.09,4.32h-2.25c-6.24,2.88-13.44,2.88-19.68,0h-2.25c-10.02,0-18.14,8.12-18.14,18.14v5.61c0,3.58,2.9,6.48,6.48,6.48h47.51c3.58,0,6.48-2.9,6.48-6.48v-5.61c0-10.02-8.12-18.14-18.14-18.14Z"></path></g></svg>