<svg xmlns="http://www.w3.org/2000/svg" width="73.333" height="76.434" viewBox="0 0 73.333 76.434">
  <path id="globe-earth" d="M20.639.406a40.987,40.987,0,0,0,41.144,70.9l-2.36-4A36.167,36.167,0,0,1,9.763,54.068,36.7,36.7,0,0,1,23,4.305ZM41.878,3.382A31.807,31.807,0,1,0,73.686,35.189,31.818,31.818,0,0,0,41.878,3.382Zm0,4.515a27.294,27.294,0,0,1,9.953,1.949l-8.414,4.822a42.209,42.209,0,0,0-3.694-3.386,25.24,25.24,0,0,0-4-2.668A27.788,27.788,0,0,1,41.878,7.9ZM29.463,11.282a6.373,6.373,0,0,1,1.949.308,17.833,17.833,0,0,1,5.335,3.283c.77.628,1.565,1.475,2.36,2.257L27.617,23.7c-.269-1.065-.564-2.116-.718-3.078a18.539,18.539,0,0,1-.205-6.361,3.674,3.674,0,0,1,1.539-2.668A2.42,2.42,0,0,1,29.463,11.282Zm27.293,1.026a27.386,27.386,0,0,1,7.593,7.285l-12,6.977A75.623,75.623,0,0,0,46.5,18.157ZM21.871,16.72a26,26,0,0,0,.41,4.617,39.758,39.758,0,0,0,1.026,4.72L15,30.88A27.165,27.165,0,0,1,21.871,16.72Zm20.418,3.8a70.053,70.053,0,0,1,5.951,8.311L33.26,37.549a70.126,70.126,0,0,1-4.309-9.44Zm24.317,3.078a27.507,27.507,0,0,1,2.565,10.466l-10.26,5.746A74.971,74.971,0,0,0,54.6,30.469Zm-41.76,6.977a74.989,74.989,0,0,0,4.309,9.337l-12,6.875a27.505,27.505,0,0,1-2.565-10.466ZM50.5,32.829a70.072,70.072,0,0,1,4.309,9.44L41.468,49.862a70.066,70.066,0,0,1-5.951-8.311ZM68.761,39.5a27.166,27.166,0,0,1-6.874,14.159,26.009,26.009,0,0,0-.41-4.617,39.817,39.817,0,0,0-1.026-4.72ZM31.413,43.808a75.579,75.579,0,0,0,5.849,8.414L27,58.07a27.388,27.388,0,0,1-7.593-7.285Zm24.728,2.873c.269,1.064.564,2.116.718,3.078a18.536,18.536,0,0,1,.205,6.361,3.674,3.674,0,0,1-1.539,2.668,3.93,3.93,0,0,1-3.181,0A17.832,17.832,0,0,1,47.009,55.5c-.77-.628-1.565-1.475-2.36-2.257ZM40.34,55.71A42.132,42.132,0,0,0,44.033,59.1a25.243,25.243,0,0,0,4,2.668,27.792,27.792,0,0,1-6.156.718,27.3,27.3,0,0,1-9.953-1.949Z" transform="translate(-0.352 -0.406)" fill="#fff"/>
</svg>
