<svg xmlns="http://www.w3.org/2000/svg" width="77.109" height="88.125" viewBox="0 0 77.109 88.125">
  <path id="gps-receiving" d="M46.063,0V7.344a25.753,25.753,0,0,1,25.7,25.7h7.344A33.166,33.166,0,0,0,46.063,0Zm0,11.016v7.344A14.379,14.379,0,0,1,60.75,33.047h7.344A21.982,21.982,0,0,0,46.063,11.016ZM21.163,14.8a10.525,10.525,0,0,0-7.8,2.869,5.47,5.47,0,0,0-.344.459v-.459C6.4,24.283-.955,44.091,17.032,62.078c.473.473,1.018.817,1.492,1.262L2,88.125H9.344L23.228,67.241c.273.187.531.4.8.574v20.31h7.344V71.487A30.368,30.368,0,0,0,59.488,67.7,9.189,9.189,0,0,0,61.9,66.094c4.776-5.135,2.869-16.208-4.475-26.851a15.694,15.694,0,0,1-5.508,5.508c5.135,8.075,5.938,14.716,4.475,16.179-1.836,1.836-13.225.072-25.7-12.049-12.12-12.12-14-23.494-12.163-25.7,1.463-1.463,7.731-1.147,16.179,4.36a11.472,11.472,0,0,1,5.508-5.508C33.326,17.441,26.5,14.831,21.163,14.8Zm24.9,10.9a7.343,7.343,0,0,0-7.114,5.508l-13.77,2.18c1.1,1.463,1.75,2.983,3.213,4.82l11.245-1.721a7.289,7.289,0,0,0,2.983,2.983L40.9,50.718a32.762,32.762,0,0,0,4.819,2.869l1.836-13.311A7.365,7.365,0,0,0,46.063,25.7Z" transform="translate(-2)" fill="#fff"/>
</svg>
