<svg id="iam_ico" data-name="iam ico" xmlns="http://www.w3.org/2000/svg" xmlns:xlink="http://www.w3.org/1999/xlink" width="133.236" height="73" viewBox="0 0 133.236 73">
  <defs>
    <clipPath id="clip-path">
      <rect id="Rettangolo_538" data-name="Rettangolo 538" width="133.236" height="73" fill="none"/>
    </clipPath>
  </defs>
  <g id="Raggruppa_465" data-name="Raggruppa 465" clip-path="url(#clip-path)">
    <path id="Tracciato_2861" data-name="Tracciato 2861" d="M133.09,118.418l-38.3-52.391a4.131,4.131,0,0,0-7.466,2.438v39.74L56.5,66.027a4.131,4.131,0,0,0-7.466,2.438v34.6L32.249,66.89a3.742,3.742,0,0,0-6.789,0L8.289,103.9V68.465a3.742,3.742,0,0,0-7.484,0v52.391c0,.03,0,.059,0,.089,0,.077,0,.153.012.229,0,.055.011.109.018.163s.017.126.029.189.025.127.04.19.025.1.04.154c.019.069.04.136.064.2.016.046.032.091.05.136q.039.1.083.2.032.069.066.137c.03.059.061.118.094.175s.059.1.09.149.064.1.1.145.077.106.118.158.064.08.1.119.094.106.143.157q.051.053.1.1.076.073.157.143c.04.035.081.068.123.1s.1.079.156.117.1.071.159.105.093.058.141.086c.066.038.133.072.2.106.027.013.052.029.08.042l.071.031.085.036q.137.056.275.1l.07.021c.1.031.206.058.309.079l.031.006a3.718,3.718,0,0,0,.732.074c.117,0,.233-.007.349-.018l.081-.009q.136-.016.271-.041l.075-.013c.1-.021.2-.047.3-.076.042-.012.083-.027.124-.04q.094-.031.185-.068c.04-.016.081-.031.12-.049.092-.04.182-.083.27-.13l.069-.04q.11-.062.216-.131l.075-.051q.119-.082.232-.173l.025-.02q.132-.109.255-.232l.018-.019q.107-.108.2-.226l.044-.053q.089-.11.17-.227c.011-.016.023-.031.033-.047q.088-.132.166-.273c.019-.034.035-.069.053-.1s.045-.084.065-.128L28.854,77.357,49.03,120.844v.012a4.131,4.131,0,1,0,8.262,0V81.115l30.832,42.178c.043.059.088.115.133.171l.018.023c.078.094.159.183.244.268l.038.038a4.093,4.093,0,0,0,.579.477l.021.015q.152.1.311.189l.052.028c.105.056.212.108.321.155l.04.016c.1.04.2.076.295.108l.083.027c.106.032.213.059.32.082l.093.019c.113.022.227.04.342.052l.057,0c.129.012.259.02.389.02s.256-.008.384-.02l.1-.011q.143-.017.285-.043l.108-.021c.1-.021.2-.047.294-.076l.072-.02q.175-.055.346-.127c.033-.014.064-.03.1-.044.079-.035.157-.072.235-.113.044-.023.086-.048.129-.072.064-.037.127-.075.19-.116.044-.028.087-.057.129-.087.023-.016.047-.03.07-.047s.055-.046.084-.069c.059-.046.117-.092.174-.141s.1-.089.149-.136.092-.089.137-.136.1-.108.149-.164.074-.089.111-.135.093-.121.136-.183.066-.1.1-.146.077-.123.113-.186.062-.113.091-.171.059-.118.085-.178.056-.131.082-.2.042-.112.062-.168.046-.143.066-.215c.016-.057.031-.114.044-.171s.031-.143.044-.215.021-.128.03-.193.016-.132.021-.2.009-.15.012-.226c0-.036.005-.071.005-.108V81.115l30.832,42.178a4.131,4.131,0,1,0,6.67-4.875" transform="translate(-0.651 -51.987)" fill="#fff"/>
    <path id="Tracciato_2862" data-name="Tracciato 2862" d="M3.9,7.793A3.9,3.9,0,1,0,0,3.9a3.9,3.9,0,0,0,3.9,3.9" fill="#fff"/>
    <path id="Tracciato_2863" data-name="Tracciato 2863" d="M130.554,250.96a3.9,3.9,0,1,0,3.9,3.9,3.9,3.9,0,0,0-3.9-3.9" transform="translate(-102.35 -202.798)" fill="#fff"/>
  </g>
</svg>
