<svg xmlns="http://www.w3.org/2000/svg" width="84" height="84" viewBox="0 0 84 84">
  <path id="satellite" d="M23.258,0,8,15.258,29.492,36.75,42.125,18.867ZM50,18.867,32.609,42c3.671,2.092,7.383,4.225,10.008,7.383a37.973,37.973,0,0,1,6.891,10.008C58.429,52.561,73.133,42,73.133,42ZM23.094,46.594c-4.983-.267-9.393,1.189-11.484,3.281L42.125,80.391c4.2-4.2,5.845-17.452-3.609-26.906A23.475,23.475,0,0,0,23.094,46.594Zm50.039,3.281L55.25,62.508,76.742,84,92,68.742Z" transform="translate(-8)" fill="#fff"/>
</svg>
