<?xml version="1.0" encoding="UTF-8"?>
<svg id="Livello_1" data-name="Livello 1" xmlns="http://www.w3.org/2000/svg" version="1.1" xmlns:xlink="http://www.w3.org/1999/xlink" viewBox="0 0 1270.7 969.8">
  <defs>
    <style>
      .cls-1 {
        opacity: .8;
      }

      .cls-2 {
        fill: #1e2a46;
      }

      .cls-2, .cls-3, .cls-4, .cls-5, .cls-6, .cls-7, .cls-8, .cls-9, .cls-10, .cls-11, .cls-12, .cls-13 {
        stroke-width: 0px;
      }

      .cls-3 {
        isolation: isolate;
        opacity: .6;
      }

      .cls-3, .cls-6 {
        fill: #004f9c;
      }

      .cls-4 {
        fill: none;
      }

      .cls-5 {
        fill: #b6bdd3;
      }

      .cls-7 {
        fill: #94a1c6;
      }

      .cls-14 {
        clip-path: url(#clippath);
      }

      .cls-8 {
        fill: #ef2b89;
      }

      .cls-9 {
        fill: #d5dbf0;
      }

      .cls-10 {
        fill: #5e7dbe;
      }

      .cls-11 {
        fill: #325a9b;
      }

      .cls-12 {
        fill: #3764ad;
      }

      .cls-13 {
        fill: #adbae0;
      }
    </style>
    <clipPath id="clippath">
      <rect class="cls-4" y="0" width="1270.7" height="969.8"/>
    </clipPath>
  </defs>
  <g id="Raggruppa_571" data-name="Raggruppa 571" class="cls-1">
    <g class="cls-14">
      <g id="Raggruppa_568" data-name="Raggruppa 568">
        <path id="Tracciato_3737" data-name="Tracciato 3737" class="cls-9" d="M639.4,630.7c-.1-.3-.3-.6-.5-.9-.3,0-.6-.1-.8-.1-.3,0-.6,0-.8,0-1-.2-2-.6-2.9-1.1-.6-.4-1.3-.7-2-.8-1.6-.1-2.9,1.8-4.2,3.5l-.3.5c-1.1,1.5-3.2,3.4-5.5,3.6-1.2.2-2.4-.2-3.3-1.1-.3-.3-.6-.6-.9-1-.2-.2-.3-.4-.5-.6-.1,0-.2,0-.4,0-.6.2-1.1.2-1.7,0-1.8-.4-2.3-2-2.7-3.1,0-.3-.2-.6-.3-.8-.2-.5-.6-.8-1.1-1-1.8-.3-3.6,0-5.1.9l-.7.4c-2.7,1.6-6.2,3.5-9.5,2-1.1-.6-2.1-1.3-2.9-2.3-.4-.5-.9-.9-1.4-1.3-.5-.4-1.2-.5-1.8-.3l-.8-.2c.2,1.3,0,2.7-.5,4-.9,2.1-2.6,3.4-4.2,4.7-.8.6-1.5,1.2-2.2,1.9-1.2,1.4-2.1,3-2.8,4.6-.7,1.5-1.4,2.9-2.3,4.2-1.6,2.2-4,3.7-6.8,4-.6,0-1.2,0-1.9-.1,0,0,0,0,0,.1-.7,1.6-2,2.9-3.6,3.6-1,.4-2.1.7-3.1.9-1,.2-1.9.4-2.8.8-.8.4-1.4,1.1-1.7,1.9-.1.3,0,.6,0,.9l.9,1.4-1.4.8c-.6.4-1.3.5-2,.6-1.6-.1-3.1-.8-4.3-1.8.3,1,.6,2,.8,3,.9,3.3,1.7,6.4,4.1,7.6l1,.5c3.7.3,7.1,1.8,10.4,3.3l1.3.6c3.6,1.6,7.8,3.2,11.6,2.2,2-.6,3.7-2,4.6-4,.6-1.2.6-2.5,0-3.7l-1.1-2.2,16.6-.7c.7,0,1.4,0,2-.3,1.5-.6,2.2-2.8,2.9-5.1.9-3,1.9-6.3,5.4-6.9.7,0,1.5,0,2.2,0,.6.1,1.1,0,1.7,0,.4-.3.7-.7.9-1.1.3-.4.6-.9.9-1.3,2.6-2.7,6.7-2,9.5-.6.8.4,1.5.9,2.3,1.3,1.4,1,2.9,1.7,4.6,2.1,1.9.2,3.8,0,5.6-.7,1.1-.3,2.1-.6,3.2-.8,2-.3,4.1,0,6,.8,0-.1,0-.2,0-.3,1.2-3.7,2.5-7.3,3.9-10.9-5-2.6-9.1-6.7-11.5-11.8"/>
        <path id="Tracciato_3738" data-name="Tracciato 3738" class="cls-9" d="M480.6,621.2c4.8,12,11.8,23,20.7,32.4l.2.3.5-1.1c2.4,1.1,5.1,2.3,7.7,2.3h0c2.1,0,4.7-1.2,5.3-3.4.1-.7.2-1.5.2-2.2,0-1.3.1-2.7.6-3.9.9-1.9,2.6-3.2,4.6-3.8,5.2-1.7,10.9-.3,14.7,3.7.8.9,1.5,1.8,2.1,2.8,1.3,1.8,2.5,3.5,4.3,4.1.5.1,1,.3,1.5.3.7,0,1.4.3,2,.5,1.3.4,2.4,1.2,3.2,2.3,1.1.1,2.2.5,3.1,1.1l.3.2c.7.5,1.5,1,2.3,1.4,0-.4,0-.8.2-1.2.6-1.7,1.8-3.1,3.4-3.8,1.1-.5,2.3-.8,3.5-1,.9-.2,1.7-.4,2.6-.7.8-.4,1.5-1,1.9-1.8.1-.3.1-.6,0-.9l-3.9-8.4,6.4,6.6c.5.5,1.3.8,2,.7,1.8-.2,3.4-1.2,4.4-2.7.8-1.2,1.5-2.4,2.1-3.7.8-2,1.9-3.8,3.3-5.4.8-.8,1.7-1.6,2.6-2.3,1.3-.9,2.5-2.1,3.2-3.5,1.1-2.5-.5-5.7-4.8-9.6-4.2-4-8.7-7.8-13.5-11.2-1.3-.9-2.6-1.7-3.8-1.4-1.1.2-2.1,1.3-3.1,2.4-1.6,1.6-3.5,3.6-6.3,2.9l-2.1-.6,1.2-1.8c0-.2-.5-.9-1.2-1-.8,0-1.5,0-2.3.1-.8.1-1.5.2-2.3.2-1.5,0-2.9-.7-3.9-1.8,0,0-.2-.2-.2-.3-2,.8-4.1,1.2-6.3,1h-1.1c0,0-.3-1.1-.3-1.1-.6-1.8-.9-3.6-1.1-5.4-1.8.8-3.8,1.2-5.8,1.1h-1.7c0,0,.2-1.8.2-1.8.4-4.7-2.3-9.2-6.6-10.9v.2s-22.9,8.6-22.9,8.6c-2.8,1.1-5.6,2.1-8.5,2.8-5,1.1-10.2,1.1-15.1,0,.4,1.1.7,2.2,1.1,3.3,1.6,5.1,3.3,10.4,5.3,15.5"/>
        <path id="Tracciato_3739" data-name="Tracciato 3739" class="cls-6" d="M490.4,702.4l.7-.7,15.5,5.5c1.7.6,3.4,1.1,4.6.6.6-.3.9-.8,1-1.4,0-.4,0-.5-.1-.5l-7.4-5.5,8.8,2.7c4.3,1.3,8.9,1,12.9-.9.6-.3,1.2-.6,1.8-.9,1.3-.8,2.7-1.4,4.2-1.8,3.7-1,7.3,0,10.9,1.5-.8-5.7,1.1-11.4,5.2-15.5-1.4-.9-2.6-2.1-3.5-3.5-1.4-2.3-1.6-5.8.6-7.9l.5-.5h.7c2,.2,4-.5,5.5-1.8-2.3-2.1-3.2-5.4-4-8.4-.4-1.7-.9-3.4-1.7-5l-2.7-.4c.1-.6.4-1.2.8-1.7-.2-.1-.5-.3-.7-.4-.5-.2-1-.3-1.5-.3-.7,0-1.3-.2-1.9-.4-2.7-.9-4.4-3.2-5.8-5.3-.6-.9-1.2-1.7-1.9-2.5-2.9-3.1-7.3-4.2-11.3-2.9-1.2.3-2.2,1.1-2.8,2.1-.3.8-.4,1.7-.3,2.6,0,1,0,2-.3,3-1,3.7-4.9,5.7-8.3,5.7-2.7,0-5.3-.7-7.7-2l-14.9.5c-.7,2.9-2.6,5.3-5.2,6.7,1.1,3.8,1.3,7.9.5,11.8l-.4,2.1-1.9-1c-4.2-2.2-9.1-1.2-14.3-.2-1.8.4-3.6.7-5.4,1-3.6.4-7.3.4-10.9.2l-30.8-1c1.4,1.8,2.6,3.7,3.6,5.7.3.6.6,1.2.9,1.9,1.8,3.7,3.6,7.5,7,8.4h.3c.9.3,1.7.6,2.4,1.1.1-1.3.9-2.4,2.1-2.9,2.1-1,3.9.4,5.3,1.4.5.4,1,.7,1.5,1,1.4.7,2.9,0,5.3-1.3,1.8-1.1,3.9-1.8,6-2h0c2.6,0,4.9,1.5,6.6,2.7l13.8,9.3c.8.7,1.8,1.1,2.8,1.4,1.4,0,2.8-.2,4.1-.8,2.3-.8,5.2-1.7,7.4.3.5.5.9,1,1.2,1.6.3-.7.8-1.3,1.3-1.8"/>
        <path id="Tracciato_3740" data-name="Tracciato 3740" class="cls-9" d="M517.3,549.8c.4,1.2.8,2.3,1.2,3.5,3.6,11.1,4.5,22.8,2.8,34.3,5.5,1.9,9.2,6.9,9.4,12.7,1.7-.2,3.3-.8,4.6-1.8l2.6-1.9v3.2c-.1,2,.1,4,.6,6,1.8,0,3.6-.6,5.1-1.5l2.9-1.8-.6,3.4s0,.1.1.3c.4.4,1,.7,1.6.7.6,0,1.2,0,1.8-.2,1.1-.2,2.2-.2,3.2,0,1.5.3,2.8,1.3,3.5,2.7,0,.1.1.3.2.4.7-.5,1.3-1.1,1.9-1.8,1.3-1.3,2.7-2.9,4.8-3.3,2.3-.5,4.4.7,6.2,1.9,4.8,3.5,9.5,7.4,13.8,11.5,2.2,1.8,3.9,4.1,5.2,6.6.2,0,.3-.2.5-.2,1.6-.5,3.3-.2,4.7.7.7.5,1.3,1.1,1.8,1.7.6.6,1.2,1.2,1.9,1.6,1.9.9,4.3-.5,6.7-1.8l.8-.4c1.9-1.1,5-2,7.6-1.2,1.3.4,2.4,1.3,3,2.6.2.4.3.8.5,1.2,0,.4.2.7.4,1.1,0,0,.2,0,.3-.1.5-.1,1.1-.2,1.6,0,1,.3,1.9.9,2.4,1.8.1.2.3.4.5.6.2.2.6.3.9.3,1.4-.3,2.5-1.2,3.3-2.3l.3-.5c1.6-2.2,3.5-5,6.9-4.8,1.2.1,2.3.5,3.3,1.1.6.4,1.2.6,1.9.8.2,0,.4,0,.6,0,.8,0,1.6.2,2.4.6.7.5,1.3,1.3,1.6,2.1,2.1,4.4,5.5,8,9.8,10.3,1.6-4.3,3.3-8.5,5-12.7l2.7-6.7c1.6-5.1,5.1-9.3,9.7-11.8,2.5-1.8,4.9-3.4,6.4-5.8,3.2-5.1,1.8-12.3-4.1-21.6-1.4-2.2-3-4.7-3-7.6,0-2,1-3.8,2.5-5,.6-.4,1.2-.8,1.9-.9-.8-3.5-3.1-6.5-6.3-8.2l-2.4-1.3,2.3-1.5c3.5-2.3,5.1-6.5,4.2-10.6-.1-.4-.3-.9-.4-1.3-1.3-2.4-1.1-5.3.5-7.5.3-.5.6-1,.7-1.5.1-1.1,0-2.2-.5-3.2l-6.1-19.4s0,0,0,0c-1.1-.9-2.1-2-3-3.1-1.2-1.5-2.4-2.8-3.9-3.3-.4-.1-.9-.2-1.3-.3-1.2-.1-2.3-.5-3.3-1.2-1.2-1.1-2-2.6-2.2-4.3-1.1-5.4-1.3-11-.6-16.5-2.6-.3-5.3.4-7.5,1.9l-1.8-2.6c3.4-2.2,7.5-3,11.4-2.1l1.4.3-.2,1.5c-.9,5.6-.8,11.3.3,16.9,0,.9.5,1.8,1.1,2.4.6.3,1.2.5,1.9.6.6,0,1.2.2,1.7.4,2.4.8,3.9,2.6,5.3,4.3.7,1,1.6,1.8,2.5,2.6.1.1.3.2.5.3h.2c0,0,0,.2,0,.2,1.9,1.1,4.2,1.1,6,0,2-1.3,2.8-3.8,1.9-6l-.8-1.7,1.9-.5c1.6-.4,3.2,0,4.5.8.6.4,1.1.9,1.5,1.4,1.8-1,3.8-1.6,5.9-1.8,2.2-.3,4.3-.6,5.5-1.9,1.1-1.2,1.4-3.2,1-6.1l-.2-1.2c-.4-2.3-.8-4.7,0-7.2.6-2,2.1-3.5,4-4.3,1.4-.6,2.9-.5,4.2.3.2.1.5.3.7.5.2.1.4.3.6.4.2,0,.9-.3,1.1-.4l9.4-5.2c-1-.5-2.1-.8-3.2-.7-2,0-4.6-.7-5.8-2.3-.7-.9-.9-2-.5-3.1.3-.8.8-1.5,1.5-2.1.1-.1.3-.3.4-.4h-3.8c0,0,2.9-2.2,2.9-2.2-1.7-1.1-3.2-2.5-4.2-4.3-1.4-2-2.3-3.2-3.7-3.3-.4,0-.7,0-1.1,0-.8.1-1.7.1-2.5,0-1.4-.5-2.6-1.4-3.5-2.6l-.2-.3c-5.7-6.6-15.1-8.6-25-10.2-6.2-1-11.7-1.6-16.3.7-.7.4-1.4.8-2.2,1.3-2.9,1.8-6.2,3.7-9.6,2.1-.6-.3-1.2-.7-1.8-1.2-.4-.4-.9-.7-1.4-.9-1.6-.7-3.7.8-5.8,2.5-2.7,2.1-5.3,2.9-7.4,2.4.9,14.1,8.7,26.8,20.8,34-5.5-2-11.7-1.6-16.9,1,.8-2.1.6-4.5-.7-6.4-4.5,2.7-6.4,8.2-4.6,13.1-5,1.7-10.8-3.7-9.5-8.8-5-.4-7.3,6.4-6.7,11.4s1.8,11-1.9,14.4c-7.4-1.9-16-5-17.6-12.4-.4-1.8-.5-4-2.1-4.8-1.1-.4-2.3-.4-3.4,0l-17.6,4.8c-16.1,4.4-30.3,14.6-43.3,25.1-.2-.1-.3-.3-.5-.4-2.7,4.6-3.8,10.1-3.2,15.4.6,3.4,1.5,6.7,2.7,9.9"/>
        <path id="Tracciato_3741" data-name="Tracciato 3741" class="cls-9" d="M502.8,730c.1.1.3.3.4.4,0,0,.2-.2.3-.4,3.1-2.4,6.5-2.2,9.8-1.9,2.1.3,4.1.2,6.2-.3,2.3-.7,4.2-2.6,5.9-4.3,1.6-1.4,2.9-3,4.1-4.8.6-1,1.1-2,1.5-3,1.3-2.9,2.8-6.3,6.3-7.4.6-.2,1.2-.3,1.7-.4.6,0,1.1-.2,1.6-.4,1.1-.5,1.6-1.8,2-3.3-3.3-1.4-6.5-2.4-9.4-1.6-1.2.4-2.4.9-3.6,1.6-.6.3-1.3.7-1.9,1-3.9,1.8-8.2,2.4-12.4,1.7,0,0,0,0,0,0-.2,1.7-1.4,3.2-3,3.9-.7.3-1.5.4-2.2.4-1.6,0-3.1-.4-4.6-1l-13.5-4.8c-.3.5-.5,1.1-.5,1.6h-1.2c1.8,4.3,3.1,8.7,2.5,12.8.2-.1.5-.3.8-.4,1.4,1.7,1.9,4.1,1.2,6.2,3.6.3,6.7,3.3,7.9,4.4"/>
        <path id="Tracciato_3742" data-name="Tracciato 3742" class="cls-9" d="M599.6,822.7c1.4-2.6,1.7-5.6.6-8.4l-.8-2.1h2.2c2.3-.1,4.6-1.7,7-4.6,1.8-2.3,3.5-4.8,5-7.3.3-.5.7-1.1,1-1.6-.2-.2-.3-.3-.5-.5-.8-.9-1.4-1.5-1.9-1.5-.3,0-.5.1-.7.2-.5.2-1,.3-1.5.4-1.9.2-3.2-.9-4.3-1.8-.5-.5-1.1-.8-1.7-1.1-.4-.1-.8-.2-1.2-.2-.9,0-1.7-.3-2.5-.7-2.2-1.1-2.7-3.5-3.1-5.4l-.2-.7c-.2-.9-.7-1.7-1.4-2.3,0,0,0,0-.1,0,0,.1-.2.2-.3.3-3.1,3.6-6.4,6.9-10.1,9.9-.9.6-1.6,1.4-2.3,2.3-.9,1.6-.5,3.5,0,5.8.5,2.2,1,4.5.3,6.8l-3-.8c.4-1.6,0-3.3-.4-5.3-.5-2.5-1.2-5.4.3-8,.8-1.2,1.7-2.2,2.9-3.1,3.5-2.9,6.8-6.2,9.8-9.7,1.4-1.6,2.9-3.6,3.2-5.8.4-2.7-1.1-5.3-2.7-8.1-1.4-2.4-2.9-5-3.3-7.9-.2-2.5.1-5.1.9-7.5.3-1.2.5-2.3.7-3.5v.4c-3.2-.5-5.9-2.2-8.4-3.9-2.4-1.6-4.7-3-7.3-3.4-1.3-.1-2.5-.1-3.8,0-.7,0-1.5,0-2.2.1-3,0-6-.4-8.9-1.2l-19-4c-.8-.2-1.7-.3-2.5-.1-.5.3-1,.6-1.5,1-.2.2-.5.4-.7.6-.9.7-1.9,1.3-3,1.8-1.1.5-2.2,1.2-3.1,2-1.6,1.7-1.8,4.3-1.7,6.1.4,6.9,4.6,12.7,9,18.8,4.1,5.7,8.4,11.6,9.5,18.7,0,.4,0,.8,0,1.2,4.7,1.2,9.5,4.6,8.8,9.2,5.3,6,11.8,9.1,19.3,11.9,5.8,2.2,13.7,6.8,10.6,12.2,4.3,2.3,9.3,2.7,13.9,1.2l-1.3-.7Z"/>
        <path id="Tracciato_3743" data-name="Tracciato 3743" class="cls-9" d="M545.1,788.2c-1-6.3-4.8-11.7-8.9-17.3-4.5-6.2-9.1-12.6-9.6-20.4-.1-2.5.2-6,2.5-8.5,1.1-1.1,2.5-2,3.9-2.7.9-.4,1.7-.9,2.5-1.5.2-.2.4-.3.6-.5.7-.7,1.6-1.3,2.5-1.6,1.4-.4,2.8-.4,4.2,0l19,4c2.7.6,5.5,1,8.2,1.1.7,0,1.4,0,2-.1,1.5-.1,3-.1,4.5,0,3.2.5,5.9,2.2,8.5,3.9,2.3,1.5,4.4,2.8,6.8,3.3-.4-1.9-1.1-3.8-2-5.5-.7-1.4-1.3-2.8-1.8-4.2-1.7-5.3-.4-11,1-15.7-.8.4-1.6.8-2.4,1.3-.3,1.3-1,2.5-2.1,3.3-2.2,1.5-4.9,1.9-7.4,1.3-1.6-.5-3.1-1.1-4.6-1.9-1.4-.8-2.9-1.4-4.5-1.8-.8-.2-1.7-.3-2.5-.3-2.2-.2-4.8-.4-6.6-2.2-.8-.8-1.4-1.8-1.8-2.8l-4.6-9.4c-.7-1.8-1.8-3.5-3.2-4.9-.6-.5-1.3-.9-2-1.1l1.2,3.2-2.9-1.4c-.4,2-1.7,3.8-3.5,4.8-.8.3-1.6.6-2.5.7-.4,0-.9.2-1.3.3-2.1.7-3.2,3.1-4.4,5.7-.5,1.1-1,2.3-1.7,3.4-1.3,2-2.8,3.8-4.6,5.4-1.9,1.8-4.2,4.1-7.2,5.1-2.4.6-4.9.7-7.3.4-2.9-.2-5.6-.4-7.5,1.1-.7.7-1.6,1.1-2.6,1.2,0,0-.1,0-.2,0-.9-.1-1.7-.5-2.3-1.2-2.8-2.6-5-3.8-6.8-3.6-.7,1.6-1.5,3.2-2.5,4.7-2.7,4.4-4.5,11.1-.1,13.7,2.8,1.7,6.6.3,8.6-2.2s2.8-5.8,3.5-8.9c5.5-2,10.3,4.7,11,10.5.6,5.8-.6,12.2,2.7,17.1,2.6,3.9,7.4,5.7,10,9.6,2.3,3.3,2.6,7.8,5.3,10.8,3.1,3.4,8.1,3.8,12.8,4.4,0,0,0,0,0-.2"/>
        <path id="Tracciato_3744" data-name="Tracciato 3744" class="cls-6" d="M315.3,567.7c.5,1.3,1,2.5,1.5,3.6.9,1.9,2,3.9,3.6,4.4h.4c.6.3,1.2.5,1.7.9,1,.9,1.6,2.2,1.6,3.6l.6,5.1c0,.5.1,1,.4,1.5.3.2.6.4,1,.4,2.2.6,4.5.8,6.8.6h.7c1.7-.5,3.4-.3,5,.3,2.9,1.4,3.6,5,4.2,8.3.2,1.5.6,3,1.2,4.4,2.2,3.6,6.5,8,10.6,9.3,1.7.5,3.5.7,5.3.8-1-5.1,1.3-10.3,3.4-14.9.5-1.1.9-2.1,1.3-3.1,2.5-6.3,3.5-13,2.9-19.7-.2-1.3-.2-2.7.2-4,.1-.3.2-.5.4-.8-.2-.4-.5-.8-.8-1.1-.9-.9-1.8-1.6-2.9-2.3-6-4-13-6.5-20.2-7.2l.2-1.8c-5.7,3.8-12.9,4.1-18.9.8,0,0-10.3,3.1-11.5,3.2-.8.1-1.5.2-2.2.4,1.4,2.3,2.6,4.7,3.5,7.2"/>
        <path id="Tracciato_3745" data-name="Tracciato 3745" class="cls-3" d="M345.8,554.9c7.3.9,14.2,3.5,20.3,7.5,1.2.8,2.4,1.7,3.4,2.8.2.3.5.5.7.8.9-.6,1.8-1.1,2.8-1.5,1.6-.7,3.1-1.4,3.7-2.6.2-.5.4-1,.6-1.5.3-1.1.8-2.2,1.5-3,1.7-1.8,4.1-1.6,6.2-1.5,1.5,0,3,.2,3.7-.5.5-.6.9-1.2,1.2-2,.7-1.5,1.7-3.6,4.1-3.6h0c.9,0,1.8.3,2.6.9.3.2.6.3.9.4.4.1.9,0,1.2-.1,1.2-.7,2.3-3,2.7-5.4l2.9-17.8c.1-.5.1-1,0-1.5-.4-.9-1-1.7-1.7-2.4-1.2-1.2-2.6-2.6-2.5-4.6-7.5-3.7-16.4-3.9-24-.5l-5,20.2-6.9-2.5c.3-4.2.6-8.4.8-12.6l-12.7,14.1c-4.1,4.6-8.5,10.8-5.9,16.4-.2.2-.4.3-.6.5"/>
        <path id="Tracciato_3746" data-name="Tracciato 3746" class="cls-12" d="M674.7,536.3c-.2.8-.6,1.6-1.1,2.4-1.1,1.4-1.2,3.4-.2,4.9.2.5.3,1,.5,1.5,1.1,4.5-.3,9.3-3.6,12.5,3.2,2.4,5.4,6,6.1,10,1.3-.8,2.4-1.7,3.3-2.8.3-.4.6-.8.9-1.2,1-1.6,2.4-2.9,4.1-3.8,1.7-.8,3.7-.6,5.3.5.3.2.5.4.8.7,4.6-3.2,11.3-2.2,16.4.1,1.4.6,2.8,1.4,4.2,2.1,3.9,2,7.5,3.9,11.5,4,2.3,0,4.5-.4,6.7-1,3.6-.8,7.3-1.6,11-.4,1,.4,2,.8,2.9,1.3,2.3,1.4,5,1.9,7.7,1.6l11.2-.2c8.2-.1,15.4-.6,21-4.3.8-5.2.4-10.6-1.2-15.6l-.4-1.3,1.2-.6c2.3-1.2,4.9-1.4,7.4-.7l.8.2.2.8c1.1,3,4.4,4.6,7.4,3.6,3-1.1,4.6-4.4,3.6-7.4,0-.2-.1-.4-.2-.5l-1.1-2.1,3.5-.2c-.4-.3-.8-.5-1.2-.8-5.6-4.8-6.2-13.1-1.5-18.7.7-.8,1.6-1.5,2.4-2.2.7-.6,1.4-1.2,2-1.8,2.8-3,3.7-7.4,4.5-11.4.2-.5.2-1,.1-1.6-.2-.4-1-.9-1.5-1.2l-15.5-8.4c-1.8-.8-3.3-2-4.6-3.6-.5-.8-.9-1.6-1.3-2.4-.6-1.4-1.1-2.3-1.8-2.6-.5-.1-.9-.1-1.4,0-.6,0-1.1,0-1.7,0-4.6-.6-6.1-6.1-6.6-7.9-2-7.2-3.6-14.5-4.8-21.9-1-.8-2.3-1-3.5-.7-1.4.3-2.5,1.3-2.9,2.6l-.3,1.4h-1.4c-5.6-.8-11.1-2-16.4-3.8-3.8-.7-7.5-1.6-11.1-2.8-1.4-.4-2.7-1-3.9-1.8,0,0,0,0,0,0-1.3.8-2.2,2.1-2.4,3.6,0,.6,0,1.2,0,1.8,0,2.7-.2,6.1-3,7.9-1.7,1.1-3.7,1.1-5.4,1-.7,0-1.4,0-2.1,0-1.4.2-2.8.7-4.1,1.3-1.3.6-2.8,1.1-4.2,1.4l-.3.2c.3,1,.1,2.1-.5,3-.3.4-.6.7-.9,1-.3.2-.5.5-.7.8.4.8,1.9,1.3,3.2,1.3,2,0,4.6.5,5.9,2,.7.8,1,1.8.9,2.8v.8c-.1,0-11.4,6.2-11.4,6.2-1,.7-2.2.9-3.4.8-.6-.2-1.2-.5-1.7-.9-.1-.1-.3-.2-.4-.3-.5-.3-1-.3-1.5,0-1,.4-1.8,1.3-2.1,2.3-.5,1.7-.2,3.7.1,5.7l.2,1.3c.6,3.9,0,6.7-1.8,8.7-1.9,2.1-4.8,2.5-7.4,2.9-2.4.4-4.6.7-5.6,2.2l-2.2,3.3-.7-3.9c-.2-.7-.6-1.3-1.2-1.7-.1,0-.2-.1-.3-.2.3,3-1.2,6-3.8,7.6-1.4.8-2.9,1.3-4.6,1.3-.7,0-1.3,0-2-.2l5.3,16.7c.6,1.5.8,3.2.5,4.9"/>
        <path id="Tracciato_3747" data-name="Tracciato 3747" class="cls-13" d="M958,610c-.7-1.5-1.5-2.9-2.4-4.3-.8-1.3-1.6-2.6-2.3-4-1.9-4-2-7.9-.2-10.7.5-.7,1-1.4,1.6-2.1,1.6-2,2.3-3,1.8-3.6-.3-.3-.7-.5-1.2-.6-11.6-4.4-23.4-5.5-34.1-3l-5.5,1.3,4-3.9c-.6-.6-1.5-.9-2.4-.8-.6.2-1.1.4-1.7.6-1.8.7-4.1,1.7-6.3.5-1.1-.7-2-1.7-2.7-2.9-.7-1-1.1-1.7-1.6-1.7-.3,0-.6,0-.9.1-2,.7-4.1-.3-4.8-2.3,0,0,0-.1,0-.2-.1-.3-.3-.5-.4-.8-.3-.3-.7-.6-1.1-.6-1.4,0-2.8.4-3.9,1.3-.4.3-.9.7-1.3,1-1.8,1.5-3.8,3.1-6.4,3.2h-.8s-.5-.6-.5-.6c-2.4-3.1-7.4-3.1-12-2.7h-1.6c0,.1-.1-1.4-.1-1.4-.4-4.5-1.6-10-5.5-10.8-1.5-.1-3,0-4.4.5-.4.1-.9.2-1.3.3-3.1.7-6.4.8-9.5.3-3.3-.6-5.6-2-6.5-4.1-.5-1.4-.7-2.9-.5-4.3l.6-13.1c-4.3-1.3-8.8-1.8-13.3-1.5-1.5,0-3.1.3-4.6.5-4.8.8-9.6,1.8-14.2,3.2,0,0,.1.2.2.3l-2.9,1.2c-.2-.4-.4-.7-.7-1.1l-2.7.2c.3,1.7.2,3.4-.4,5-1.5,4.5-6.3,6.9-10.8,5.4-.4-.1-.8-.3-1.2-.5-2-.9-3.6-2.5-4.5-4.4-1-.2-2.1-.1-3.1.1,1.4,5.3,1.7,10.9.8,16.3v.6c-.1,0-.6.4-.6.4-7,5-16,5.1-23.3,5.2l-11.2.2c-2,.1-4.1,0-6-.5-1.1-.4-2.2-.8-3.2-1.4-.8-.4-1.6-.8-2.5-1.1-2.9-.9-6-.3-9.3.5-2.4.6-5,1-7.5,1-4.7-.1-8.9-2.3-12.9-4.3-1.3-.7-2.7-1.4-4-2-4.6-2.1-11.1-3.1-14.6.7l-3.2,3.5.4-4.7c0,0,0-.3-.4-.6-.6-.4-1.5-.5-2.2-.2-1.2.7-2.2,1.7-2.9,2.9-.3.4-.7.9-1,1.3-2.6,3.1-6.2,5.2-10.1,6,0,.2,0,.4,0,.6,0,2,1.2,4,2.5,5.9,6.6,10.4,8,18.8,4.2,25-1.8,2.9-4.6,4.8-7.3,6.7-2.4,1.6-4.6,3.2-6.1,5.3-1,1.6-1.9,3.3-2.5,5.1l-2.7,6.7c-3.4,8.6-7,17.4-9.9,26.4-.4.8-.5,1.7-.4,2.6.2.9,1.3,1.6,3.3,2.3,7.1,2.2,14.7,2.5,20.5,2.5,12.7,0,25.4-1.5,37.8-4.5,2.1-.5,4.3-1.2,5.1-2.8.2-.4.3-.9.4-1.4.2-.9.5-1.8.9-2.6,1.6-2.6,4.7-2.7,7.2-2.9h.7c3.7-.3,7.2-1.6,10.9-3,3.3-1.4,6.7-2.4,10.1-3,5.3-.7,10.5,1.1,14.3,4.9,1.6,1.7,2.5,4,2.5,6.4,2.7-.2,5.3.2,7.9,1.1,3.1,1.3,6.4,4.5,6,8.6-.1.9-.3,1.8-.6,2.6-.4.9-.5,1.8-.4,2.7.4.9,1,1.7,1.8,2.3,8.1,7.8,14.5,17.2,18.7,27.6l-.9.4s0,0,0,0c2,1.1,3.8,3.1,6.1,3,5.1-.2,4-8.1,1.3-12.4l18.9-7.4c.3-4.2,2.2-8.2,5.2-11.1,4.9,6.9,4.9,16.2-.1,23.1.7,3.9,6.8,2.9,9.9.4s7.2-6,10.5-3.6c1.3.9,1.9,2.6,3,3.8,2.3,2.7,6.5,3,9.2.7,2.3-2,2.9-5.4,1.4-8.1,4.3-3.7,11.9-2.6,14.9,2.3,5.6-3,8.9-9,8.5-15.3,3.8-.2,7,2.7,7.2,6.4,0,.2,0,.4,0,.5,7.7,1.3,9.8-13.1,17.6-13.5,1.7,0,3.4.6,5.2.5,4.2-.4,6.2-5.3,8.6-8.8,2.6-3.8,6.3-6.7,10.6-8.4-2.2-4.1-2.9-8.8-2-13.4l.2-.9.9-.3c7.5-2.4,14.2-6.7,19.6-12.4l1.3-1.4,1.1,1.5c.1.2.4.3.7.3,1.4-.5,2.6-1.6,3.1-3.1,1.1-3.5.9-7.3-.5-10.7"/>
        <path id="Tracciato_3748" data-name="Tracciato 3748" class="cls-12" d="M249.6,360.5c.1,3.2,2.8,5.8,6.1,5.6,2.6,0,4.8-1.9,5.5-4.4-2-1-3.7-2.6-4.8-4.6l10.9.4c-.9-3.7-1.7-7.5-2.6-11.2,4.2,4.4,9.9,7.1,15.9,7.6,4.4.4,10.8,1.7,9.8,6-8.4,1.1-16.2,4.7-22.4,10.3-1.5,1.4-3,3.2-2.7,5.2.7,3.9,6.3,3.4,10.2,2.7,5.7-1,11.7-.2,16.9,2.4,2.3,1.1,4.6,3.1,4.5,5.6-.1,1.1-.5,2.1-1,3-2.4,4.8-4.9,9.8-9,13.3s-10.1,5.4-15,3.1c-.5,2.5-1,4.9-1.5,7.4-1.8-1.6-3.7-3.2-6.1-3.5s-5.1,1.5-4.9,3.8c.4,3.9,6.2,3.2,10.1,3.7,5.4.8,9.2,5.8,8.5,11.2.6,1.6-.2,3.4-1.9,4,0,0-.1,0-.2,0,4.7-1.4,8.4,4.1,10.1,8.7,2.2,6.2,3.9,12.6,5.5,19l1.2,4.8c1.6,6.2,2.8,13.9-2,18.1l-5.9.9c4.9,2.1,7.9,7.3,8.8,12.5s0,10.6-1,15.8c4.7,0,9.7,0,13.8,2.2s7.3,7.2,5.7,11.6c-3.4,9.1-20.4,5.5-23.8,14.6-1.9,5.1,3.8,11.2,9,9.6-6.5,4.4-14.8,5.2-22.7,4.7-5.7-.3-11.3-1.2-16.9-2.1l-20.5-3.2c-2.1-.2-4.1-.8-5.8-1.8-3.1-2.1-4.3-6.5-7.8-7.7-7.2-2.3-11.5,11.3-18.9,10.2-.2-4.6-6.8-5-11.2-3.7s-10.8,1.6-11.8-2.9l18.7-6.9c6.4-2.4,13.1-4.8,19.9-4.3,4.1.3,8.3,1.7,12.1.2s5.4-8,1.6-9.3l2.4-5.1c-2.1,0-3.7,1.9-3.6,3.9,0,.4,0,.7.2,1.1-3.3,3.4-8.7-.4-12.2-3.5-6.7-5.8-14.9-9.5-23-13,5.9,1,11.9,1.9,17.7.7s11.5-5,13.1-10.7c1.6-5.8-3.2-13.2-9-11.9l22.7-3,3.8,4.5c3.7-.4,2.9-5.9,2.8-9.6-.1-5.5,3.5-10.5,8.8-12.1-4.2-3.1-8.7-6.6-9.8-11.7s3.6-11.4,8.5-9.5c.6-2.5-1.4-5-3.8-5.9s-5-.7-7.5-.4l-15,1.6c-1,.2-2,.1-2.9-.2-2.1-.9-2.2-4.1-.8-6s3.6-2.9,5.5-4.1c6.9-4.5,10.7-12.6,12.3-20.7s1.5-16.4,2.5-24.6c-3.2,1.1-6.8-.6-7.9-3.8,0-.2-.1-.4-.2-.6,5,.2,6.6-3.4,8-7.2.3-.7,3.2-11,3.2-11.3"/>
        <path id="Tracciato_3749" data-name="Tracciato 3749" class="cls-12" d="M702.1,89.4c.5-2.2-.7-2-1.2-4.2-3.9,3.7-11.6,1.1-12.6-4.1-5-.6-9.9,4.1-9.4,9.1l-8.9-1.5,7.6-16.6c-7.8,3.7-12.6,11.7-12.4,20.4-4.4.2-7.7-5.7-5.2-9.3l-6.8,8.1c-3.8-4.6-1.2-12.7,4.5-14.3-5.2-1.7-10.5,2.4-13.6,6.8s-5.7,9.7-10.4,12.3c-4.8,2.7-10.9,1.9-15.9,4.2s-7.3,11-2,12.6l-20.6,4,6.9,9.5c-7-.4-15.1-.4-19.8,4.8-2.2,2.4-3.2,5.5-4.3,8.6-2,5.5-4.2,11-6.5,16.4-2.8,6.4-6.3,13.1-12.4,16.5-2-2.1-4.7-3.4-7.6-3.5-.4,10.1-17.9,12.6-18.2,22.7,0,2.7,1.2,5.4.4,7.9-.9,3.4-4.7,5-7.6,7.2-11.2,8.8-6.6,28.2-16.4,38.6-2.9,2-7.6-.5-7.6-4.1-4,2.6-7.3,6.1-9.6,10.3-8.4,14.8-25.7,30.7-42.2,34.7-7.4,1.8-15.3,1.9-22,5.5-8.8,4.9-13.5,14.8-11.9,24.7,3.8.6,3.4,6.2,2,9.8l-5.9,15.2,7.2.5c1.6,6.9-3.6,14.7-10.6,15.9l6.8,6.2c-.3,6.4-8,10.6-8,17,0,4,2.9,7.2,5.8,10.1,4.1,4.1,8.5,8.2,13.9,10.4s12.2,1.8,16.4-2.2c3.6-3.5,4.8-9.2,9-11.9,2.7-1.7,6.1-1.8,9.2-2.8,8.7-2.8,13-12.5,14.9-21.4,1.1-4.8,5.2-11.3,9.1-8.2,1.7,1.3,1.8,3.8,1.8,6-.1,6.8-.2,13.6-.3,20.4,0,1.1,0,2.2,0,3.4l7.7-20.2c.8-2.2,1.9-5,4.1-6.9,1.8-1.6,4.3-2.2,6.7-1.5-1.5-12.2,1.1-24.6,7.3-35.2-3.1-1.7-8.2-5.2-7.7-10.4.2-1.3.5-2.5,1.1-3.7.4-.8.6-1.7.8-2.6.3-2.2-.9-4.4-2.2-6.7-.6-1.1-1.2-2.2-1.7-3.4-1.2-3-.8-6.4,1-9.1.6-.8,1.5-1.4,2.4-1.8-1.3-5.8-.5-11.9,2.2-17.3,1.9-3.7,5.3-6.5,9.4-7.7,4-1.1,8-.4,11.6-.9,2.9-.4,6.1-2.2,6.6-4.8l-9.9-11,2.1-.9c5.3-2.3,9.2-7.1,10.4-12.7.3-2,.5-4,.5-6,.2-4.2.3-8.5,2.9-12.1,1.7-2.4,4.3-3.9,6.7-5.5,3.2-2,6-3.7,6.5-6.7,0-.4.1-.9.1-1.3,0-1,.2-1.9.5-2.9,1.1-2.9,4-4.1,6.6-5.2,2.7-1.1,4.4-2,4.5-3.5,0-1-.3-1.9-.8-2.8-.5-1-.9-2-1.1-3.1-.8-5.2,4.5-8.5,8.1-10.7,2.4-1.5,4.2-3.8,4.5-5.6.2-.7,0-1.5-.5-2l-1.6-1.9,2.4-.6c2.8-.7,5.8-.4,8.4.8,3.2-2.1,5.4-5.4,6.1-9.2l.4-2.4,2,1.4c.5.3,1.1.4,1.6.2,1.4-.5,2.5-1.5,3-2.8.5-1.2.8-2.4,1-3.7.3-1.7.8-3.3,1.5-4.9,1.1-2.1,3-3.6,5.3-4.1-1.5-2.9-1.7-6,.5-8,1-1,2.5-1.4,3.9-1.3,2.9.3,5.7,2.8,7.4,5l.5.6c1.6,2.4,3.6,4.5,5.8,6.4,2,1.5,5.2,2.6,7.9,1.5l1-.4.7.8c1.5,1.6,3.7,2.3,5.8,1.9,1.5-.3,2.9-.9,4.1-1.7,3.4-1.8,7.3-3.8,9.8-6.9,2.2-2.7,3.4-7,1.5-10-.1-.2-.3-.4-.4-.6-.5-.7-.9-1.4-1.2-2.2-.3-1.4-.2-2.9.3-4.2,1.3-4.1,3.2-7.9,5.8-11.3l1.6-2.2,1.1,2.5c1.2,2.3,4.1,3.2,6.4,1.9.3-.2.6-.4.9-.6.3-.4.6-.7.9-1.1.4-.6.9-1.2,1.4-1.7,2-1.9,4.9-2.4,7.4-1.3l.8.3.8,4.7c2.8,0,5.3,1.4,6.6,3.8.8,1.6,1.3,3.4,1.3,5.2,3.9-3.2,8.6-5.5,13.6-6.6-2.8-5.7-3.5-12.2-2.1-18.4"/>
        <path id="Tracciato_3750" data-name="Tracciato 3750" class="cls-12" d="M649.2,197.6c-.5-.3-1-.6-1.6-.8-1.3-.5-2.4-1.3-3.3-2.3-1.7-2.4-.7-5,.2-7.3.5-1.1.9-2.3,1-3.6,0-1.7-1.2-3.2-2.5-4.9-.7-.9-1.4-1.9-2-2.9-.8-1.6-1.5-3.3-1.9-5l-.3-1c-1.9-6.4-5.2-12.3-9.7-17.3-4.3-1.9-8.3-4.8-13-9.4-2.1-2.1-4.1-4.2-6-6.5h0c-.4-.3-1-.5-1.5-.3-1.4.3-2.5,1.2-3.2,2.4-.6,1.3-1,2.7-1.2,4.1-.3,1.5-.7,2.9-1.2,4.3-.9,2.2-2.8,3.9-5,4.6-.7.2-1.5.3-2.3.2-1.2,4.3-4.1,7.9-8,10l-.8.4-.8-.4c-1.5-.8-3.2-1.3-4.9-1.2.2.8.2,1.6,0,2.3-.5,3.3-3.6,6.3-6,7.8-3.7,2.3-7,4.6-6.6,7.5.2.8.4,1.6.8,2.3.7,1.3,1.1,2.8,1.1,4.3-.3,3.6-3.6,5-6.5,6.2-2.2.9-4.3,1.8-4.9,3.4-.2.6-.3,1.3-.3,2,0,.6,0,1.1-.2,1.7-.8,4.4-4.4,6.6-7.9,8.9-2.2,1.4-4.5,2.8-5.8,4.7-2.1,2.8-2.2,6.5-2.3,10.4,0,2.2-.2,4.4-.6,6.5-1.2,6-5,11.1-10.3,14.1l7.9,8.8v.6c-.2,4.6-4.9,7.7-9.4,8.4-3.9.6-7.8,0-11.2.8-3.2.9-5.9,3.2-7.5,6.2-2.6,5.2-3.1,11.1-1.5,16.7l.7,2.4-2.5-.4c-.7-.1-1.3.2-1.7.7-1.1,1.8-1.3,4-.6,5.9.5,1.1,1,2.1,1.6,3.1,1.5,2.7,3,5.4,2.5,8.7-.2,1.1-.5,2.3-1,3.3-.4.9-.7,1.8-.8,2.8-.2,2.8,2.2,5.5,7.5,8.2l1.5.8-.9,1.5c-7.9,12.7-10.1,28.2-6.1,42.6l.3.9c1.5,5.1,3.3,11.4-.4,15.9l-1.5,1.8-1.1-2.1c-3.4-6.5-4.4-13.9-2.7-21.1-1.3-.4-2.8,0-3.8.9-1.6,1.4-2.5,3.6-3.2,5.6l-8.8,23.2-1-.4c0,.3.2.6.3.9,1,1.9,2.6,3.3,3.9,5,10,12.6-1.1,33.5,8.7,46.3.9,1.2,2.1,2.4,2.4,3.9.6,2.7-1.5,5.1-2.8,7.5-3,6.1-.5,13.4,2.1,19.7,1.6,4,3.4,8.1,6.9,10.6s9.2,2.3,11.2-1.5c2-3.7-.5-8.4.8-12.4.7-2.2,2.4-3.8,4.1-5.4,3.7-3.5,10.3-6.9,13.2-2.7.9,1.2,1.2,3,2.5,3.8,2.2,1.3,4.7-1.2,6-3.4,11.7-20.4,16.4-44,13.4-67.3l6.5,3.4c1.3-2.8,2.6-5.7,5.1-7.5s6.4-2.1,8.3.3c2.6-2.8,3.4-6.9,1.8-10.5l11-6.4c-2-4.8-3.1-9.9-3.3-15.1-13.2-.9-19.9-17-19.4-30.2.3-8.9,2.5-17.6,6.4-25.6-3.5-.1-6.7-1.9-8.7-4.7,13.4-3.3,25.4-10.6,34.3-21.1,3.6-4.2,7.7-9.4,13.2-8.9,4.8-8.6,7-18.4,6.4-28.2-.5-7.4-2.3-15.6,2.2-21.5,5.7-7.5,17.2-5.8,26.3-3.3-.8-2.6-.5-5.5-.2-8.2.5-4.2.6-6.9-1.5-8.4"/>
        <path id="Tracciato_3751" data-name="Tracciato 3751" class="cls-8" d="M507.9,365.5l-.3-.9c0,0,0-.2,0-.3-.2,3.9.4,7.9,1.8,11.5.7-3-.4-6.9-1.4-10.3"/>
        <path id="Tracciato_3752" data-name="Tracciato 3752" class="cls-12" d="M150.3,430c-.7,5.3-7.1,7.4-12.4,8.3,1.3,4.4,5.5,7.2,10,6.6,3.6,6.2,1.5,14.1-4.7,17.7-3.1,1.8-6.7,2.2-10.1,1.2-.6,3.4,1.3,6.7,4.5,7.9-5.6,3.2-14.2-3.8-18.6,1-2.1,2.2-1.7,5.7-1.1,8.7.6,3.4,1.6,7.3,4.6,9,3.6,2,8.5,0,11.9,2.3,1.2.9,2,2.2,3.1,3.2,4.8,4.5,12.7,1.3,18-2.5,5.4-3.9,11-7.9,17.9-6,5.1,1.4,8.9,5.5,14.6,2.3,3-1.7,5.1-4.7,7.1-7.5,1.8-2.6,3.7-5.5,4-8.7.3-3.8-1.7-7.5-1.2-11.3.3-1.7.8-3.4,1.6-4.9,2.1-4.8,4.5-9.9,8.8-12.9,1.8-1.3,4.2-2.5,4.3-4.8,0-1.9-1.9-3.7-1.4-5.6.5-1.8,2.9-2.2,4.2-3.6,2.2-2.3.2-6.4-2.7-7.7s-6.2-.8-9.4-.8c-3.5,0-7-.8-10.2-2.2,2.6-.5,5-2,6.4-4.3-6.3-1-12.6-1-18.9-.2-2.7.3-5.5.9-7.4,2.8s-2.4,5.4-.3,7.1c3.4,2.8,4.6,8.1-1.7,9.8-4.6,1.2-6.6-3.8-9.2-6.7-5.2-5.9-10.4-8.3-11.7,1.7"/>
        <path id="Tracciato_3753" data-name="Tracciato 3753" class="cls-9" d="M176.2,88.7c1.8-4.8,2.2-11.6-2.4-13.8l-3.3,16.1c-4.1-4.9-7.3-10.5-9.4-16.5l-.6,10.2c-2.3-2-4.7-4-7.7-4.7s-6.6.8-7.3,3.7c3.7.6,7.9,1.6,9.8,4.8s-1.4,8.7-4.7,6.9c3.9,3.2,8.5,5.3,13.5,6.1.8,5.3-7.1,7.8-12,5.5s-8.5-7-13.7-8.6c-1.8-.5-4.4-.1-4.5,1.7,0,.6.2,1.3.6,1.8,2.3,3.8,6.6,5.9,9.8,8.9s5.5,8.4,2.6,11.8c-1.2,1.2-2.7,2.2-4.3,2.8l-22.4,10,19.9,1.1c1.7,0,3.5.4,5,1.2,2.3,1.6,2.8,4.7,3.1,7.4,1.1,8.4,4.6,18.3,13,19.8,3,.5,6.3-.2,9.2.8,2.6.9,4.6,3.2,7.2,4.2,4.2,1.6,8.9-.3,12.5-3s6.7-6,10.8-7.9c9.5-4.4,22.7,0,29.6-7.8,8.3-9.5-2.2-26.9,6.2-36.3-6-5.6-15.9,2.9-23.6.3-2.9-1-5.1-3.4-7.5-5.2-8.3-6.4-20.1-5.9-28.5,0-6.8-5.8-3.7-14.2-1-21.4"/>
        <path id="Tracciato_3754" data-name="Tracciato 3754" class="cls-11" d="M382.6,818c.2,1.3.8,2.6,1.6,3.6,1,.9,2.5,1.5,2.9,2.7.3.9-.2,2,.3,2.8,1,1.7,3.5,0,4.4-1.7,1.2-2.4,1.7-5.1,1.7-7.8,0-1.9-.4-4,.6-5.6,1.1-1.8,3.4-2.4,5.1-3.7,6.6-5.1.3-16.2-7.3-14.4-9.5,2.2-11,16.8-9.3,24.2"/>
        <path id="Tracciato_3755" data-name="Tracciato 3755" class="cls-11" d="M371.7,858c2.1.6,4,3,2.8,4.8-.7,1.1-2.3,1.4-3.1,2.5-.4.6-.6,1.3-.7,2l-3,15.9c-.2.6-.2,1.2,0,1.7.4.9,1.6,1.1,2.6,1.2,2.6.2,5.7,0,6.9-2.3.6-1.2.7-3,2-3.4.5-.1,1-.1,1.4,0,3.6,1,6.1,4.1,6.3,7.8,2.7-3.2,5.5-6.8,5.2-11-.1-1.6-.7-3.1-1-4.7-.3-2.5,0-5.1.5-7.6.7-3.8.8-8.6,2.3-12.2,1.3-3.2,5.3-6.2,6-9.4,1.2-6.1-2.4-8.1-7.5-8.4-4.8-.2-13.4,3.1-18,4.7-8.8,3.2-9.3,7.3-8.8,16.9,2,.9,4,.8,6.1,1.4"/>
        <path id="Tracciato_3756" data-name="Tracciato 3756" class="cls-11" d="M446,924.4c.3.8.8,1.5,1.5,2.1,1,.6,2.1.9,3.3,1,8.1,1.3,15.3,6,19.8,12.8.5.9,1.2,1.7,2,2.4,1.6,1.1,3.6.7,5.5.7,5.2-.1,11,3.4,11.3,8.6,0,1.4,0,3.2,1.1,3.9.9.3,1.9.3,2.7,0,4.9-1.6,10.8-4.3,11.1-9.5,0-2.1-.8-4-1.1-6.1-1.3-9.6,10.7-16.8,10.4-26.4-6.8,0-12.5,7.7-18.9,5.7-1.4-.4-2.6-1.3-3.9-1.7-4.7-1.4-10.8,1.2-15.8.7-4.6-.4-8.2-2.3-12.4-3.5-8.4-2.3-22.7-4.1-16.4,9.2"/>
        <path id="Tracciato_3757" data-name="Tracciato 3757" class="cls-11" d="M260.6,850.1c.9,2.4.1,4.8-1.4,6.8-4.5-5.3-11.4-8.1-18.4-7.4,5.1-2.5,10.9-3.3,16.5-2.2.3,0,.5.2.7.3,1,.7,1.8,1.5,2.6,2.4"/>
        <path id="Tracciato_3758" data-name="Tracciato 3758" class="cls-11" d="M703.4,915.7c2.1,2.4,4.9,4.5,8,4.4-6.1-6.9-12.8-13.2-19.9-19-3.2-2.6-11.8-.6-15.5.6,3.2,1.8,7.8,2,11.5,3,7.5,2,10.8,5.4,15.9,11"/>
        <path id="Tracciato_3759" data-name="Tracciato 3759" class="cls-10" d="M863.2,719.1c2.4,5.5-3.7,12.1-1.4,17.7,4,.8,8.2-.9,10.5-4.2,1.1-1.6,1.8-3.6,3.2-4.9.9-.8,1.9-1.4,3-1.9l18-8.7c-.1-1.7-.3-3.5-.4-5.2,5.5-.7,10.8-2,16-3.8,1.6-.4,3.1-1.3,4.3-2.5,1.1-1.3,1.3-3.4,0-4.5-1.5-1.3-3.9-.3-5.7.5-6.1,3-13,4.2-19.8,3.6-1.6,0-3.1-.5-4.6-1.2-8.3-4.9-9.9-11.3-21.1-7.8-6.8,2.1-14.2,4.6-20.5,8.1-18.6,10.2,15.2,7.7,18.2,14.8"/>
        <path id="Tracciato_3760" data-name="Tracciato 3760" class="cls-7" d="M464.7,418.9c-3.8,1.3-7.4,2.9-11,4.7,3.6,2.3,7.8,3.7,12.1,4,0,.8.2,1.7.5,2.4.4.8,1.4,1.1,2.2.7.3-.2.5-.4.6-.7,2.3-3.5,3.3-7.7,2.9-11.8-4.2-1.3-8.8-.8-12.6,1.4l5.2-.7Z"/>
        <path id="Tracciato_3761" data-name="Tracciato 3761" class="cls-7" d="M484.2,469c-.7,1-1.6,1.8-2.6,2.4-1.1.6-2.4.4-3.3-.4-.8-1-.7-2.4-.8-3.7s-1.3-2.7-2.5-2.1c-.4.2-.6.5-.9.9l-2.5,3.5c-1.4,1.4-1.6,3.7-.5,5.3,1.3,3,3,6.3,6.2,7.2.7.1,1.4.3,2.1.6.3.2.6.4.9.5.5,0,.9-.2,1.2-.6,6.1-5.4,10.7-14,10.4-22.3-3.3,1.2-5.6,6-7.8,8.7"/>
        <path id="Tracciato_3762" data-name="Tracciato 3762" class="cls-7" d="M455.9,475.8c-1.7,1.6,4.2-2.1,6.3-1.2,2.1,1.1,3.7,2.9,4.5,5,.8,1.7.8,4.5-1.1,4.8-.8,0-1.5-.1-2.2-.5l-2.9-1.4c-1.5-.6-2.8-1.5-4-2.6-1.2-1.1-1.7-2.8-1.4-4.4.4-1.5,2-2.4,3.5-2,0,0,.1,0,.2,0,0,0-2.9,2-3,2.1"/>
        <path id="Tracciato_3763" data-name="Tracciato 3763" class="cls-7" d="M474.3,492.7c1.9.5,3.2,2.2,3.1,4.1-4.1-1.3-7.8-3.8-10.5-7.2l7.5,3.1Z"/>
        <path id="Tracciato_3764" data-name="Tracciato 3764" class="cls-7" d="M651.3,395.7c1,1.2,1.2,2.9.3,4.3-.9,1.6-2.7,2.4-4.4,3.1l-7.2,3.1c-1,.4-2.2.9-3.1.3-.9-.7-1.1-2-.5-3,.6-.9,1.5-1.7,2.4-2.2l10.9-7.1,1.6,1.5Z"/>
        <path id="Tracciato_3765" data-name="Tracciato 3765" class="cls-5" d="M879.5,82.5c1.5,2,4.2,2.8,5.8,4.8,1.3,1.6,2.3,4.1,4.3,4,2.1-.2,2.6-2.9,3.3-4.9.7-2.1,2-3.9,2.9-5.9s1.3-4.5.1-6.3c-1.7-2.7-5.6-2.8-8-5-1-.9-1.6-2.1-2.5-3-1.6-1.6-3.9-2.4-6.2-2.2.7,5.3-3.1,13.9.3,18.5"/>
        <path id="Tracciato_3766" data-name="Tracciato 3766" class="cls-11" d="M240.3,342.5c-2,1.4-4.2,2.6-6.4,3.5-3.8,1.8-7.7,5.3-6.8,9.4,2.8-3,7.4-3.6,11.5-3.7.7,0,1.4,0,2.1-.4.8-.6,1.3-1.4,1.6-2.4l1.8-4.9c-1.8.2-3.5.8-4.9,1.9l1.1-3.6Z"/>
        <path id="Tracciato_3767" data-name="Tracciato 3767" class="cls-11" d="M231.4,454.6c1.8.3,3.6.4,5.4.3-.4,1.9-1.9,3.4-3.9,3.9-1.9.4-3.9.4-5.8,0,1.1-2.5,3-4.6,5.3-6l-1.1,1.8Z"/>
        <path id="Tracciato_3768" data-name="Tracciato 3768" class="cls-11" d="M232,362.4c0,.8.2,1.7.6,2.4l4.2,8.6c.8-2.3.1-4.7-.5-7-.3-1.3-.8-2.6-1.7-3.6-.9-1-2.5-1.2-3.6-.4h1.1Z"/>
        <path id="Tracciato_3769" data-name="Tracciato 3769" class="cls-11" d="M275,841.1c-2.1,3,.4,8,4.1,8,1,0,2.2-.3,3.1.2.8.4,1.2,1.4,2,1.9,1.9,1.1,4-1.8,3.1-3.8s-3.1-2.9-5.2-3.5c-1.4-.5-3-1.1-3.5-2.6,0-.7-.2-1.3-.4-1.9-.7-1-2-1.3-3-.6,0,0,0,0,0,0-.9.7-1.6,1.7-1.8,2.8l1.5-.4Z"/>
        <path id="Tracciato_3770" data-name="Tracciato 3770" class="cls-11" d="M225.8,858.9c.4,3.9-2.5,7.5-6,9.3s-7.6,2-11.5,2.3l13.5-13.8s3.4-.2,4,2.2"/>
        <path id="Tracciato_3771" data-name="Tracciato 3771" class="cls-11" d="M290.8,338.7c2.3.5,3.2,4,2.5,6.2h-5.2c.5-2,1.3-4,2.3-5.8l.3-.4Z"/>
        <path id="Tracciato_3772" data-name="Tracciato 3772" class="cls-8" d="M1133.7,466.7c.2.3.4.6.7.8-.2-.3-.5-.6-.7-.8"/>
        <path id="Tracciato_3773" data-name="Tracciato 3773" class="cls-8" d="M686.2,939.7c-.5-.4-1-.8-1.5-1.2.4.5,1,.9,1.5,1.2"/>
        <path id="Tracciato_3774" data-name="Tracciato 3774" class="cls-13" d="M745.2,269.8l-25.4-12.3,2.6-7.9,1.8,1.5c1.6,1,3.8.4,4.7-1.3.2-.4.4-.9.4-1.4-.1-1.8-1.7-3.3-3.2-4.8l-.2-.2c-6-5.9-10.5-13.1-13.4-21-1-2.3-1.4-4.7-1.2-7.2.2-1.5.7-3,1.3-4.5.4-.9.7-1.8.9-2.8.6-2.6.2-5.7-1.2-9.2-2.2-5.6-6-10.4-10.9-14l-.3-.2c-1.1-.7-2-1.5-2.7-2.5-.7-1.1-1.2-2.3-1.4-3.6-.9-4.7-.4-9.6,1.6-14l.5-1.1c.7-1.2,1.1-2.5,1.2-3.9,0-2.7-2.7-4.9-5.1-6.8-8.1-6.5-12.4-13.4-12.8-20.5-.2-5.4,1.7-10.7,5.2-14.8,0-2.3,0-4.8-1-6.8-.8-1.5-2.9-2.7-4.4-2l-1.9,1-1.2-6.8c-1.2-.2-2.4.1-3.2.9-.4.4-.7.8-1,1.2-.3.5-.7,1-1.1,1.5-1.8,1.8-4.3,2.5-6.8,2-1.6-.3-3.1-1-4.2-2.1-1.7,2.7-3.1,5.5-4.1,8.6-.3.8-.4,1.6-.3,2.4.2.5.4.9.8,1.3.2.2.3.5.5.8,2.8,4.5,1.1,10.2-1.7,13.7-2.9,3.6-7.1,5.8-10.8,7.7-1.6.9-3.3,1.6-5.1,2-2.8.5-5.7-.3-7.9-2.2-3.5.8-7.1,0-9.9-2.2-2.5-2-4.7-4.4-6.5-7l-.5-.6c-1.6-2.1-3.7-3.6-5.2-3.8-.5,0-1.1,0-1.5.5-1.6,1.4.2,4.8,1.7,6.7,1.9,2.3,4,4.5,6.1,6.6,4.5,4.5,8.4,7.2,12.4,8.9l.5.4c4.9,5.4,8.5,11.8,10.6,18.8l.3,1.1c.4,1.5.9,3,1.6,4.3.5.9,1.1,1.7,1.8,2.5,1.5,1.9,3.2,4.1,3.1,6.8-.1,1.6-.5,3.2-1.2,4.7-.8,2-1.3,3.3-.6,4.3.6.6,1.3,1,2,1.3.7.3,1.4.7,2.1,1.1,3.8,2.6,3.3,7.2,2.8,11.3-.3,3-.6,6,.6,8.2l-.8.5c3.2,1,6.4,2.4,8.3,5.1,4,5.5.9,13.3-3.1,18.9-3.2,4.6-6.9,8.8-11.1,12.7-1.7,1.4-3.2,3-4.5,4.8-1.6,2.6-2.1,5.8-3,8.8-2.7,8.2-9.3,14.4-17.6,16.6,2.2,13.5,2.2,27.2,0,40.6-1.2,7.3-2.4,16.3,3.7,20.5,2.5,1.7,5.7,2.1,8.4,3.5s4.8,5,3,7.5c4.2,0,6.9,4.1,9.7,7.2s8.1,5.4,10.7,2.2c1.4-1.7,1.3-4.3,2.6-6,1.9-2.6,5.9-2.4,9-3.3,2.6-.8,4.9-2.4,7.2-3.9,7.3-4.5,15.7-7,24.2-7.2.8-4.9,6.3-6,11.6-5.4l-1.4-.8,14.6-25.4c.7-1.6,1.9-2.9,3.4-3.8.8-.4,1.6-.7,2.5-1,.8-.2,1.6-.5,2.3-1,0-.3-.3-.6-.5-.8-.5-.6-.8-1.2-1-1.9-.2-1.3.1-2.6.9-3.7,3.3-6,6.9-11.7,11-17.1,1.8-2.3,4-4.7,6.9-5.9.1-3.1-4.7-5.7-6.3-6.5"/>
        <path id="Tracciato_3775" data-name="Tracciato 3775" class="cls-12" d="M728.3,446.5c-.8-2.1-.5-4.5-.3-6.7.3-2.8.4-4.6-.9-5.6-.2-.1-.4-.3-.6-.4-.8-.4-1.6-1.1-2-1.9-.5-1.3-.4-2.7.2-4,1.4-4,.3-9.3-3-11.6l-.2.5c-4.8-1.6-9.1-2.8-13.1-1.5-1.2.4-2.3,1-3.4,1.6-1,.6-2,1-3,1.5-1.2.5-2.6.8-3.9.8-1.7,0-3.3-.5-4.6-1.5-1-.9-1.8-2-2.3-3.3-.4-.9-.9-1.7-1.6-2.3-1.3-1.1-3.4-.9-4.6-.7-.7.1-1.3.3-2,.5-1.4.4-2.8.7-4.3.7-1.1,0-2.2-.1-3.2-.3-.2,8.9-2.4,17.6-6.6,25.5-6.3-.4-10.5-6.6-14-11.9s-9.1-10.8-15.3-9.3c-8.7,2.2-8.2,14.7-12.7,22.4-1.4,2.4-3.5,4.5-4.5,7.1-.4,1.3-.7,2.6-.7,3.9h0c1.3,1,3.7-.2,5.4-1.5,2.2-1.7,5.4-4.3,8.9-3,.8.3,1.5.8,2.2,1.4.4.3.8.6,1.2.8,1.9.9,4.2-.5,6.6-1.9.8-.5,1.6-1,2.4-1.4,5.9-3,13-1.9,18.2-1,10.5,1.7,20.4,3.8,26.8,11.2l.3.3c.5.7,1.1,1.2,1.8,1.6.5,0,.9,0,1.4,0,.6,0,1.1-.1,1.7,0,3,.2,4.6,2.6,6,4.7,1,1.5,2,2.9,3.3,3.4,1.7.7,3.6,0,5.8-1,1.6-.7,3.3-1.3,5-1.5.9,0,1.7,0,2.6,0,1.4,0,2.7,0,3.6-.5,1.4-.9,1.5-3.1,1.6-5.4,0-.6,0-1.3,0-1.9.2-2.1,1.3-4.1,3-5.5-.6-.7-1-1.4-1.4-2.3"/>
        <path id="Tracciato_3776" data-name="Tracciato 3776" class="cls-12" d="M663.5,403c2.1-.8,4.1-2,5.7-3.6,3.1-1.7,5.8,2.9,6.1,6.4.1,1.1.2,2.2.2,3.3,1,.3,2.1.4,3.2.4,1.2,0,2.4-.3,3.6-.6.7-.2,1.5-.4,2.2-.5,3-.6,5.5,0,7.2,1.4,1,.9,1.8,2,2.3,3.3.4.9.9,1.7,1.6,2.3,1.3,1.1,3.6.8,5.3.2.9-.4,1.8-.8,2.7-1.3,1.2-.7,2.5-1.3,3.9-1.8,4.1-1.3,8.4-.5,12.1.6l.3-.2c3.7-2.4,5.2-6.9,3.7-11l-.3-.7c-.8-1.4-1.1-3.1-.7-4.7,0-.4.1-.8.1-1.2-.2-.8-.6-1.5-1.2-2.1-.2-.3-.5-.6-.7-.9-3.4-4.9-2.2-11.3.1-15.7l.5-.9c.7-1.1,1.2-2.3,1.5-3.5.2-2-1-3.8-2.8-4.5l.6-1.6c-7.3,4.5-17.4,4.9-26.3,4.9-11.6,0-25.1,1.2-31.3,10.9l4.9,3c-4.3,5-5.9,11.8-4.4,18.3"/>
        <path id="Tracciato_3777" data-name="Tracciato 3777" class="cls-9" d="M1268.2,399.5c-9.7-7.5-26.2,10.7-34.6,1.8-2.8-3.4-2.4-8.4.9-11.2.2-.2.5-.4.8-.6-8.4,0-16.2,4.3-20.7,11.5-10.2-14.7-16.1-31.9-17.1-49.7-4.6-3.2-7.3-8.4-7.2-14-.8,9.6-9.9,15.9-18.1,20.9-1.7,1.2-3.6,2-5.7,2.5-5.7.9-10.9-6.1-8.4-11.3s11.2-5.5,14.1-.5c.7-6.7,1.4-13.4,2-20.1.2-1.4.2-2.8-.2-4.2-1.9-4.9-9.1-3-14.2-1.7-10.8,2.5-22-1.9-28.1-11.1l8.1-1.2c-6.4-9.7-9.1-21.4-7.7-32.9.7-5.5,3.8-13.1.1-17.4-.9,1.1-2.3,1.6-3.7,1.4-3.6-6.1-4.2-14-9.1-19.1-1.8-1.6-3.8-3.2-5.8-4.6-5.7-4.8-9-11.9-8.9-19.3.2-1.4,0-2.7-.3-4-1-2.5-3.9-3.5-6.2-5s-4.1-4.8-2.1-6.7c-2.4-7.9-8.9-18.7-11.3-26.6-1.2-4-2.5-8.1-5.2-11.1-3.2-3.6-8.1-5.4-11.9-8.4-6.7-5.4-9.5-14.2-13.1-22.1s-9.4-16-18-17.1c4-1.7,8.6-1.4,12.4.6-4.4-10-3.5-21.4,2.3-30.6,2.6-4,6.3-8.7,4.2-13.1-1.2-2.6-4.1-3.9-5.8-6.2-3.5-4.8-.5-11.5,2.3-16.7s5.2-12.3,1.1-16.6c2.9-6.8-6.6-16.7-12.8-12.6-2.4-9.1-13.7-14.7-22.4-11-5-1.5-8.1-6.5-7.1-11.6l-17.3.7c-4.2.2-8.6.4-12.3,2.2-3.8,1.9-6.9,5.8-6.3,10,.7,4.9,5.6,7.8,8.7,11.6s2.9,11.5-2,11.7c7.1,1.4,8.6,13.3,2,16.4-7.5-3-11.6-11.1-9.6-18.9-6.9,5.7-9.3,15.3-5.7,23.5h-13.3c-1.9,4.2-2.1,8.8-3,13.3s-2.8,9.1-6.8,11.3-10.2.2-10.6-4.3c-.5-4.9,5.6-10.1,2.6-14-1-1.1-2.3-1.8-3.8-1.9-6.4-.8-12.4,5.9-11.1,12.1,1.1,5.1,5.4,11.8.8,14.3-3.6,2-7.3-2.5-9.1-6.3l-11.9,18.1c-1,1.3-1.6,2.7-2,4.3,0,1.8.3,3.5,1,5.2,3,8.2,4.5,19.4-3,23.9-7.6,4.6-19-1.7-25.6,4.1-5.5-3.7-8.4-10.3-7.4-16.8,6.5,0,14.6-1.1,16.4-7.3-11.3-8.5-27.2-16.4-38.7-8.1,1.7,3,4.9,4.6,7.5,6.9,8.7,7.9,7.8,21.6,6.2,33.2,5.3-1.6,12.2-2.7,15.5,1.8,3.9,5.4-.5,15.1,5.3,18.3-4.8-3.1-10.7-3.9-16.1-2.2-.5-2.7-1-5.4-1.4-8.1-6.1-1.2-11.6,3.8-14.8,9.2s-5.3,11.5-10,15.5c-4,3.3-10.3,6.5-9,11.5,6.2-.9,12.3,5.3,11.4,11.5,6.9,2.3,12.7,7.1,16.2,13.5-14.8-2.5-34.9-1.8-49.4-5.6l-3.2,7.9c10.7,1.1,24.2,5.1,24.9,15.8.2,1.5-.3,2.9-1.3,4-1.1.7-2.4,1.1-3.7.9-6.2,0-12.3-1.8-17.5-5.2-3.9-2.5-10.1-5.4-12.1-1.2-8.2-4.9-13.7-13.1-15.3-22.4-.7-4.7-.5-9.7-2.6-13.9s-8.2-6.9-11.7-3.7c1-4.8-5.1-7.7-9.9-8.9s-10.7-5-8.8-9.6c1.4-3.4,6.3-3.7,9.5-2s5.7,4.6,8.9,6.3c10.4,5.4,24.5-3.6,34.2,3,2.2,1.5,3.9,3.6,6.3,4.6,4.3,1.9,9.5-.4,12.9-3.7s5.8-7.6,9.2-10.8c3.9-3.7,9.2-6.2,11.1-11.2,1.2-3.2.8-6.7.3-10-1.3-9.2-5.6-20.9-14.8-20.2-2.5.2-4.9,1.4-7.4,1.9-11.2,2.1-19.2-10.3-29.6-14.8-12.3-5.4-26.9,1-40-2.3-9.8-2.5-19.1-10.3-28.8-7.4-3,.9-5.5,2.8-7.3,5.3-.7-.8-1.3-1.7-1.9-2.6-5.2.9-10,3.3-14,6.8-4.1,3.7-6.4,9-6.3,14.6.4,6.1,4.3,12.3,11.6,18.2,2.8,2.3,6.3,5.1,6.3,9.2-.1,1.8-.6,3.6-1.5,5.2l-.5,1c-1.7,3.8-2.2,8.1-1.4,12.2.1.8.4,1.6.8,2.4.6.7,1.2,1.3,2,1.8l.4.3c5.3,3.9,9.5,9.2,12,15.3,1.6,4.1,2.1,7.8,1.3,11-.3,1.1-.6,2.2-1.1,3.2-.5,1.2-.9,2.4-1.1,3.7,0,2,.3,4,1,5.8,2.7,7.5,7,14.3,12.6,19.9l.2.2c1.8,1.8,3.9,3.9,4.1,6.8,0,2.5-1.3,4.7-3.5,5.8-1.5.8-3.2,1-4.8.6l-.4,1.4,22.9,11.1c6.2,3,9,7,7.8,10.9l-.2.8-.8.2c-2.5.7-4.5,2.9-6.2,5.1-4,5.3-7.6,10.9-10.7,16.7-.2.3-.6,1.1-.5,1.4.1.3.3.5.5.7.5.6.9,1.3,1,2.1.5,3-2.6,4-4.4,4.6-.7.2-1.3.4-2,.8-.9.7-1.7,1.6-2.2,2.6l-14.3,24.9c1.1.2,2.2.4,3.3.7l5.5,1.6c.4,2.2.7,4.5,1.1,6.7,9.9-4.1,21.2-2.2,29.3,4.8-9.7.7-19.1,3.9-27.2,9.1-1.2,1.5-2.6,2.9-4.2,4,2.7,1.5,4.3,4.4,4,7.5-.3,1.6-.9,3.2-1.8,4.6l-.5.9c-1.9,3.6-3,8.8-.4,12.5.2.3.4.5.6.8,1.6,1.5,2.2,3.7,1.7,5.7,0,.4-.1.7-.1,1.1,0,.6.3,1.2.6,1.8l.3.8c1.7,4.6.5,9.8-3,13.3,4.5,3.2,5.9,9.9,4.1,15-.2.7-.5,1.5-.4,1.7.2.3.5.5.8.6.3.2.6.4.9.6,2.8,2.1,2.4,5.5,2.1,8.5-.2,1.8-.4,3.8.1,5.2.9,2.2,3.6,3.4,6,4.2,3.5,1.2,7.2,2.1,10.8,2.8,4.8,1.7,9.7,2.8,14.7,3.4,1-1.8,2.7-3.1,4.7-3.6,2.5-.7,5.2,0,6.9,1.9l.3.3v.4c1.2,7.4,2.8,14.8,4.9,22,1,3.6,2.3,5.4,4,5.6.4,0,.7,0,1.1,0,.9,0,1.7,0,2.5.3,2.1.7,3,2.7,3.7,4.3.3.7.6,1.3,1,1.9,1,1.1,2.2,2,3.5,2.6l15.5,8.4c2.5.8,3.8,3.5,3,6,0,0,0,0,0,0-.8,4.1-1.9,9.2-5.3,12.9-.7.7-1.5,1.4-2.3,2.1-.7.6-1.4,1.2-2.1,1.9-3.5,4.3-3,10.5,1.2,14.1.6.5,1.3.9,1.9,1.3.8.5,1.7,1.1,2.4,1.7,5.2-1.6,10.5-2.8,15.9-3.7,1.6-.2,3.2-.5,4.8-.6,5.3-.3,10.6.3,15.6,2l1.1.4-.8,15.5c-.1,1,0,2,.3,2.9.6,1.4,2.6,2,4.2,2.3,2.8.5,5.6.4,8.3-.2.4,0,.8-.2,1.2-.3,1.9-.6,3.9-.8,5.8-.6,3,.6,6.8,3.2,7.9,12.1,4.7-.3,9.6,0,12.6,3.4,1.4-.5,2.7-1.3,3.8-2.4.5-.4.9-.8,1.4-1.1,1.8-1.4,4-2.1,6.2-1.9,1.3.2,2.4.8,3.2,1.8.3.4.5.8.7,1.3.1.3.3.6.5.9.3,0,.6,0,.9,0,.6-.1,1.2-.2,1.8-.2,2.1.2,3.1,1.9,3.9,3.2.4.7.9,1.3,1.5,1.8.8.4,1.9,0,3.6-.6.7-.3,1.3-.5,2-.7,2.3-.5,4.6.4,5.9,2.3.1.2.2.4.3.6,10.7-2,22.3-.8,33.7,3.6.9.3,1.8.8,2.4,1.5,2.3,2.7,0,5.6-1.7,7.7-.5.6-1,1.2-1.4,1.8-1.2,1.8-1,4.7.4,7.6.6,1.3,1.4,2.5,2.1,3.6,1,1.5,1.9,3.1,2.7,4.7,1.8,4.1,2,8.7.6,12.9-.9,2.6-3,4.5-5.6,5.2-.8.1-1.6,0-2.3-.3-5.3,5.4-11.8,9.5-19,11.9-.6,3.7.1,7.5,2,10.7,5.4-1.7,11-2.7,16.6-3.2,0,4.1-2.8,7.7-6.9,8.6.7,1.9,1.3,3.9,2,5.8-3.2,2.8-7.9,3-11.3.5-1.6,1.2-2.7,2.8-3.2,4.7,6.5,1.9,10.4,9.8,8,16.2-2.3-1.2-4.8,1.5-5.2,4.1s.1,5.4-1.2,7.6-4.2,3.4-5.1,5.8c-1.7,4.3,3.8,7.8,8.3,9s10.2,3.5,9.8,8.1c9.4-3.7,22,2.3,29.9,9.8.3-.1.6-.3,1-.4,1.9-.5,3.8-.2,5.4.8,1.9,1.4,3.4,3.2,4.4,5.4,4.5-1.3,7.9-5.1,8.7-9.7l.3-1.8,1.7.5c2.6.7,5.4-.3,6.9-2.6l.4-.7h.8c3.6-.3,4.8,3,5.8,5.6.4,1.4,1.1,2.7,2,3.9,1.4,1.5,4.1,1.4,6.6,1.2l21.4-1.7c7.8-.6,17.6-1.4,25.9,2.5l2,.9-1.6,1.6c0,0-.2.2,0,.7.4.9,1.2,1.4,2.1,1.6,1.3,0,2.6-.3,3.7-.8,1-.4,2-.7,3-.9,1-.2,2.1-.2,3.1-.2,1.2,0,2.4-.1,3.5-.4,1.3-.6,2.5-1.4,3.5-2.4,1.1-1,2.3-1.9,3.6-2.6,2.4-1.1,5.2-.6,7.1,1.1.2.2.3.4.5.5.4-.2.8-.4,1.3-.5,3.1-.8,7,.8,9.2,2.6l.6.5c2.7,2.2,5.8,4.7,8.4,3.6l1.3-.5,5.6,10c.5-.9.8-1.9,1-2.9.3-1.8,1-3.5,2-4.9,2.8-3.3,7.9-2.6,13.6,2,2.4,2,5.4,3.1,7.3,2.8.7,0,1.3-.5,1.6-1.1l3.2-5.4-.3,6.3c0,.8.3,1.5.9,2,.5.6,1.3.8,2.1.8,1.6-.3,2.6-1.8,2.3-3.4-.1-.4-.2-.7-.4-1.1-.5-1-.7-2-.7-3.1.2-2.3,2.2-3.5,3.7-4.4,1.1-.7,2.1-1.3,2.3-2,0-.8-.2-1.5-.7-2.1-.3-.5-.5-1-.7-1.6-.5-1.5-.2-3.1.8-4.4-8.8-4.7-18.3-8.2-25.3-15.2-2.1-2.1-3.9-4.5-5.4-7.1-3.5-6.1-5.1-13.3-9.1-19.1s-12.3-9.9-18.2-6.1c1-14.2,2.1-28.3,3.1-42.5,3.1,0,6.1,1,8.6,2.9,4-7.1,8.1-14.1,12.1-21.2-5.9-.4-10.6-5.2-10.7-11.2l9.4,1.1c-9.8-6.4-20.3-16.9-27.2-26.4-2.1,2.7-3.2,6-3,9.4-2.7,3-7.7-.2-9.6-3.8s-3.2-8.2-7.1-9.4c-2.3-.7-4.7.2-7-.2-5.8-1.1-6.3-11.3-.5-12.8-7.2-7.4-7.9-18.7-8.2-29,0-2.8,0-5.9,2-7.8,2.6-2.5,7.3-1.2,9.5,1.6s2.7,6.6,3.2,10.2c1.8,3.5,7.8,1.9,9.2-1.7s-.2-7.7-2.2-11.1-4.3-6.8-4.4-10.7c3.3-.9,6.8-.3,9.6,1.5-5.1-5.1-2-13.8,1.8-20,4.4-7.2,9.4-13.9,15-20.2l4.6,7.9c2.1-7.3,6.6-13.7,12.8-18,2.5.9,4.7,2.4,6.5,4.5-1.1-2,.4-5.2,2.7-6.1,2.7-1,5.8,0,8.5,1l34.6,12.9-9.7-12.5,22,3c2.4-8.9,8.6-16.2,17.1-19.9l4.9,1.1c-2.6-8.7,7-18.4,15.7-15.8l1.6,5.5c4.9-2.3,10.3-3.3,15.8-3.1,0-2.3.1-4.6.2-7l14.9-4.6c4.9-6.8,12.8-16.7,6.2-21.8"/>
        <path id="Tracciato_3778" data-name="Tracciato 3778" class="cls-12" d="M1073.7,771.4c1,.6,2.7-.6,3.7-1.9l.5-.7c1.3-1.7,2.9-3.8,5.4-4.2.8-.1,1.6,0,2.4,0,.3,0,.5,0,.8,0,2.1,0,4.2-.5,6.1-1.3l11.9-4c.7-.2,1.4-.6,1.9-1.2,0,0-.3-.3-.5-.4-.2-.2-.4-.4-.6-.6-1.8-1.8-1.7-4.7.1-6.5,1.4-1.3,3.4-1.6,5.1-.9.7.4,1.4.9,2,1.5.3.3.6.6.9.8.6.3,1.3.5,1.9.7l12.4,3c1.3-2.7,1.2-5.9-.4-8.5-.4.2-.8.3-1.2.4l-1.1.2-5.6-10c-3.8.7-7.4-2.1-10.3-4.5l-.6-.5c-2-1.6-4.8-2.4-6.5-2-.7.1-1.3.6-1.5,1.2l-2.9-1.3c0-.2.2-.4-.2-.8-1-.8-2.4-1-3.6-.6-1.1.6-2.1,1.3-2.9,2.2-2.3,2.5-5.6,3.9-9,3.6-1.8,0-3.5.3-5.2.9-1.6.7-3.2,1-4.9,1-2.2-.2-4.1-1.6-4.9-3.6-.3-.7-.4-1.4-.2-2.1-7.2-2.8-15.5-2.1-22.9-1.6l-21.4,1.7c-3.1.2-6.7.3-9-2.1-1.2-1.4-2.1-3.1-2.7-4.9-.8-2.2-1.4-3.3-2.1-3.6-2,2.4-5,3.6-8.1,3.4-1.6,5.7-6.3,9.9-12.1,11l-1.1.2-.5-1c-1.2-2.3-2.2-4.2-3.8-5.2-.7-.4-1.4-.6-2.2-.5.1.2.3.3.4.5,2.6,3.1,4.7,7,8.5,8.5,3.2,1.3,6.8.4,10.3.4,8.5,0,16.2,4.9,23.3,9.6,4.4,2.9,9.1,6.1,11.5,10.8s2,11.5-2.5,14.3c8.4-3.3,18.2-6.6,26-2,1.7,1,3.2,2.3,5.1,2.7,2.2.5,4.5-.5,6.8-.8.9-.1,1.9,0,2.8.1l.8-1.4Z"/>
        <path id="Tracciato_3779" data-name="Tracciato 3779" class="cls-12" d="M1144.6,797.3c-.3-.4-.6-.9-.9-1.3-.6-1-1.3-1.9-2.1-2.7-1.5-1.2-3.6-1.4-5.8-1.6-2,0-4.1-.5-5.9-1.3l-.3-.2-.2-.3c-.5-.7-.7-1.6-.4-2.4.4-1.2,1.4-2.1,2.7-2.5.3,0,.6-.2,1-.2.5,0,.9-.2,1.3-.4,0-.5-.4-.9-.8-1.1-1.2-.2-2.4,0-3.5.6l-5.1,1.9,3.3-4.3c.4-.6.5-1.3.3-2-.4-1.4-1.3-2.5-2.6-3.2-1.9-.7-3.8-1.1-5.8-1.2-.9,0-1.8-.2-2.8-.3-1.3-.1-2.4-.8-3.3-1.7-.4-.6-.6-1.4-.5-2.1.2-.9.7-1.6,1.5-2.1l.3-.3c.5-.5.7-1.2.6-1.9-.1-1.3-.8-2.4-1.9-3.2-1.9-1.3-4.4-1.4-7.3-1.3-.3.1-.6.2-.7.3l-11.9,4c-2.3,1-4.8,1.4-7.4,1.4-.3,0-.6,0-.9,0-.5,0-1-.1-1.6,0-1.3.2-2.3,1.6-3.4,3l-.5.7c-.9,1.2-2.1,2.1-3.5,2.8,5.9,3.7,8.7,13,3.7,18.3,2,3.6,7.4,2.1,11.5,1.6,17.7-2.2,31.1,23.7,48.1,18.6,4.9-1.5,8.6-5.4,11.4-9.9-2.6-1.3-4.8-3.1-6.5-5.5"/>
        <path id="Tracciato_3780" data-name="Tracciato 3780" class="cls-10" d="M1208.8,747.7c-14.4,2.4-24.6-12.7-36.3-21.4-1.8-1.3-3.6-2.5-5.5-3.6l-.2.7c.1.1-.1.8,0,1.3.2.4.3.8.6,1.2.8,1.2,1.1,2.7.9,4.1-.4,2.1-2.3,3.2-3.7,4.1-1.3.8-2.1,1.3-2.2,2,0,.5.2,1.1.5,1.5.2.5.4,1,.6,1.5.8,3.1-1,6.2-4,7.1-2,.5-4.1,0-5.6-1.4-.5-.4-.9-.9-1.2-1.5-.5.3-1,.4-1.6.5-3.4.6-7.4-1.5-9.8-3.4-.7-.5-6.7-5.3-9.2-2.4-.7,1.1-1.2,2.3-1.4,3.6-.2,1.1-.6,2.1-1,3.1,2.9,4,3,9.5.2,13.6l-.6.9-14.5-3.6c-1-.2-2-.5-2.9-1.1-.5-.3-1-.7-1.4-1.1-.3-.4-.7-.7-1.2-.9-.7-.3-1.6,0-1.9.7-.2.5-.1,1.2.3,1.6.1.1.2.2.4.3.6.4,1,1,1.3,1.6.3.7.3,1.4,0,2,2.1,0,4.1.7,5.9,1.8,1.8,1.3,3,3.3,3.3,5.5.2,1.6-.4,3.3-1.6,4.4-.1.1-.3.3-.4.4,0,0-.1.1-.2.2.3.1.6.2.9.3.9.1,1.7.2,2.6.3,2.4,0,4.7.6,6.9,1.5,2.1,1.1,3.7,3,4.3,5.3.1.4.2.9.2,1.4.9-.1,1.8,0,2.7.2,1.4.4,2.5,1.5,2.9,2.9.4,1.1.2,2.3-.5,3.2-.8.9-1.9,1.4-3.1,1.6-.2,0-.4,0-.7.2,1.2.3,2.4.5,3.6.6,2.6.3,5.3.5,7.5,2.3,1.1,1,2.1,2.1,2.8,3.4.3.4.5.8.8,1.2,1.4,2,3.3,3.5,5.5,4.6.3-.6.6-1.2.9-1.8,3-6.2,5.3-12.9,10.1-17.8s13.1-7.4,18.5-3.2c4.4,7.9,5.7,17.1,3.8,25.9,4.4-1,9-1.4,13.5-1.3-.6-11.5-.2-21.4-.8-32.9-.5-8.7,1.4-20.3,10-21.2"/>
        <path id="Tracciato_3781" data-name="Tracciato 3781" class="cls-10" d="M761.2,693.4l.5-.6c1.3,1,3.4.7,4.9.1.8-.3,1.7-.7,2.5-1.2,1.2-.7,2.5-1.3,3.9-1.7,2.8-.6,5.6-.7,8.4-.3,1.6.2,3.3.3,4.9.6,1.4.2,2.8.6,4.1,1.1-3.8-7.1-8.6-13.6-14.4-19.1-1.2-1-2.2-2.3-2.7-3.8-.3-1.5-.1-3.1.4-4.5.2-.6.4-1.3.5-2,.2-2.4-1.9-4.5-4-5.4-2.6-1-5.7-.9-8.4-.8h-2.1c0,0,.5-2,.5-2,.5-2-.1-4.1-1.6-5.5-3-3-7.2-4.5-11.5-3.9-3.3.6-6.4,1.6-9.5,2.8-3.1,1.3-6.3,2.2-9.6,2.9,2.4,1.3,4.5,3,6.2,5.2.8,1,1.5,2,2.3,3,2.3,3.1,4.4,6,7.5,7.5.4.2.9.4,1.3.6,1.8.7,3.9,1.6,5,3.7.3.7.5,1.4.6,2.2,0,.6.2,1.1.5,1.6.4.4.9.8,1.5,1,.3.1.6.3.8.4,4.6,2.6,6,8.1,6.8,13.3.2,1.6.5,3.1.7,4.7"/>
        <path id="Tracciato_3782" data-name="Tracciato 3782" class="cls-10" d="M801.1,709.9l-10.7-10c0-1.4,1.3-2.2,2.8-2.3-.1-.4-.3-.7-.5-1.1l-.3.2c-1.2-1.6-3.4-2.7-6.7-3.2-1.5-.3-3.1-.4-4.7-.6-3.6-.9-7.4-.3-10.5,1.6-.9.5-1.8.9-2.8,1.3-1.9.8-4.1,1-6.1.4,1.1,8.4,2,16.9,2.6,25.3,1.5.9,4.1.2,6.1-1.1l1.1-.7c2.4-1.5,5.1-3.3,8.2-2.8,1.3.2,2.5.6,3.6,1.2l6.9,3.3c-1.3-3.6-2.9-7-4.8-10.3l15.8-1.3"/>
        <path id="Tracciato_3783" data-name="Tracciato 3783" class="cls-9" d="M633.6,847.9h.6c7,1.2,14.2-1.1,21.4-3.8,3.9-1.5,7.8-3.2,9.4-6.5,1.4-2.9.8-6.4,0-10.1-1.1-4.9-2.5-8.4-4.3-10.8-1.4-.6-3.5.4-5.2,1.7-2.6,2.1-5.6,4.5-9.1,3.4l-1.4-.4.3-1.4c0-.3-.6-.9-1.1-1.5-1-.8-1.8-1.9-2.2-3.1-.1-.7-.2-1.4,0-2.1,0-.3,0-.6,0-.9-.1-1.1-1.4-1.7-3.4-2.6-1.3-.5-2.5-1.1-3.6-1.9-1.5-1.4-2.7-3.1-3.3-5-.4-.9-.9-1.8-1.4-2.7-1.4-1.8-3.5-3-5.8-3.1-2.3-.2-4.5.6-6.2,2.1-.2.2-.3.4-.5.6l-.3.9c-.1,0-.2,0-.3-.1-.3.4-.6.9-.9,1.4-1,1.5-2,3.1-3,4.6l.8,1.2s-.1,0-.2.3c0,.5.1,1,.5,1.4.6.6,1.2,1.1,1.9,1.5.5.3,1.1.7,1.6,1.1,2.6,2.1,3.8,5.2,4.8,8.2,3.1,9,5.6,18.1,7.6,27.4,1.1,0,2.2,0,3.3.3"/>
        <path id="Tracciato_3784" data-name="Tracciato 3784" class="cls-6" d="M620,714.8c.4-.8.9-1.6,1.5-2.3,1.2-1.2,2.7-2.1,4.2-2.8l.9-.5c7.8-4.3,13.3-11.9,14.9-20.7.1-.7.2-1.4.3-2.1.4-3.1.9-6.4,3-9,1.9-2.3,4.5-3.4,7-4.4,1.5-.6,3-1.3,4.4-2.2,1.7-1.4,2.4-3.6,2-5.7,0-.7-.7-1.2-1.4-1.2v-.4c-1.6-.3-3.3-.7-4.9-1.2-1.1-.4-4.6-1.4-5.4-4.4,0-.2,0-.4,0-.6,0,0-.2-.2-.3-.3-1.4-.9-3.1-1.2-4.8-.9-1,.2-2,.4-2.9.7-4.2,1.8-9.1,1.1-12.6-1.7-.7-.4-1.4-.9-2.1-1.2-1.9-1-4.5-1.4-5.8,0-.2.3-.4.6-.6.9-1,2-3.3,3.1-5.5,2.5-.5,0-.9,0-1.4,0-1.5.2-2.1,1.9-2.9,4.7-.8,2.7-1.8,5.9-4.7,7.1-1,.3-2,.5-3.1.5l-12.1.5c.2,1.5,0,2.9-.7,4.3-1.3,2.8-3.7,4.9-6.7,5.7-1.1.3-2.1.4-3.2.4-3.7,0-7.3-1.3-10.5-2.8l-1.3-.6c-3.4-1.6-6.9-3.2-10.5-3.2h0c-2,1.9-4.8,3.1-7.6,3.2-.5,1.1-.4,2.5.3,3.5,1.2,1.5,2.6,2.8,4.3,3.7l1.9,1.2-1.8,1.4c-4.1,3.3-6.3,8.5-5.6,13.8,1.8,0,3.5.8,4.9,2,1.7,1.7,3.1,3.7,4,5.9l4.6,9.4c.3.7.7,1.4,1.2,2,1,1,2.7,1.2,4.7,1.3,1,0,1.9.2,2.9.4,1.8.5,3.6,1.2,5.3,2.1,1.3.7,2.6,1.3,4,1.7,1.6.4,3.3.1,4.7-.8.6-.4.9-1,1-1.7v-.8s.7-.4.7-.4c10.6-6.9,23.5-9.3,35.8-6.6"/>
        <path id="Tracciato_3785" data-name="Tracciato 3785" class="cls-12" d="M773.8,770.8l-.2.2-3.7-4.5c-4.3-3.1-10-3.2-14.5-.5-.3.2-.6.4-.9.6-.9.7-2,1.3-3.1,1.7-4.4,1.5-8.5-1.4-11.9-3.7l-.5-.3c-2.8-1.9-6.5-3.2-8.5-1.6.2,7.4-5.8,13.3-11.6,15.7-3.9,1.5-8,2.2-12.2,2.2-2.7,0-5.3-.2-7.8-.4-11.5-1-23-2.8-34.3-5.5l-1.6-.4.4-1.6c.4-1.6.5-3.2.3-4.8-.8,1.2-1.7,2.3-2.7,3.4-.4.4-.8.8-1.1,1.3-.6.6-2.3,2.9-1.5,4.7.5.9,1.3,1.7,2.3,2.2.8.5,1.5,1.1,2.1,1.8,3.9,4,2.3,10.1.6,15l-5.2,14.5c1.9.8,3.5,2,4.8,3.6.2.1.4.2.5.4h-.1c2.6,3.5,3.9,8.2,4.8,12,.5,2.2.8,4.4.9,6.6h.8c0,.2.1.5.3.6,1,.5,2.1.6,3.1.2.5-.2,1-.4,1.6-.7,1.8-.8,3.8-1.7,6.1-1.1.8.3,1.6.6,2.2,1.1.3.2.7.4,1,.6,2.6,1.2,5.8-.3,9.1-1.8,3.9-1.8,8.4-3.9,12.2-1.1.4.3.8.7,1.2,1.1.4.4.8.8,1.3,1.1,1.2.5,2.5-.2,4.6-1.6.8-.6,1.7-1.1,2.6-1.6,2.1-.9,4.4-1.3,6.7-1.3.7,0,1.3,0,2-.1,2.2-.2,7.5-1.2,10-5.4.4-.8.8-1.6,1.1-2.4.5-1.5,1.3-2.8,2.2-4,1.3-1.5,3.2-2.3,5.2-2.2.4,0,.7,0,1.1.2.5-1,1.3-1.8,2.2-2.5,2.6-1.9,6.8-2.6,10.5-1.7,1.2.3,2.4.7,3.6,1.1,3.2,1,6.2,1.9,8.9,1.2-.7-1-1.4-2-2.1-3-6.4-10.2-8.2-24.2-1.3-34,4.3.7,6.8-1.7,8.2-5.3"/>
        <path id="Tracciato_3786" data-name="Tracciato 3786" class="cls-10" d="M661.3,664.3c.8,3.4-.5,7-3.2,9.1-1.6,1-3.2,1.9-5,2.5-2.3,1-4.4,1.8-5.8,3.5-1.6,1.9-1.9,4.6-2.3,7.4,0,.7-.2,1.5-.3,2.2-1.8,9.8-7.8,18.2-16.5,23l-.9.5c-1.2.6-2.4,1.3-3.4,2.2-3.9,4.1.1,11.4,2.9,15.4l13.5,19.6,10.5,2c1.6.3,3.2.7,4.8,1.2,7.6,2.7,12.5,11.2,11.3,19.1,10.7,2.4,21.5,4.1,32.3,5.1,5.9.5,12.7.8,18.5-1.6,5.1-2.1,10.1-7.3,9.6-13.3v-.7c0,0,.4-.5.4-.5,3.2-3.6,8.8-2.2,13.1.7l.5.3c3,2.1,6.2,4.3,9,3.3.8-.3,1.6-.8,2.3-1.3.3-.2.7-.5,1.1-.7,5.7-3.5,12.9-3.2,18.3.7l.3.3,2.6,3.1c.5-2.3.8-4.6.9-6.9.5-8.9.9-17.7,1.4-26.6,3.6,1.9,4.9,6.4,3,9.9,6.7-.2,11.4-7.3,11.5-13.9,0-2.2-.3-4.4-.9-6.5l-.7,1.5-8.1-3.9c-.8-.5-1.7-.8-2.7-1-2-.3-4,1-6.1,2.4l-1.1.7c-1.8,1.2-3.9,1.8-6,2-1.6,0-3.1-.5-4.3-1.6l-.4-.4v-.6c-.8-11.1-2.1-22.3-3.8-33.3-.7-4.6-1.9-9.1-5.3-11-.2-.1-.5-.2-.7-.4-1-.4-1.9-1.1-2.6-1.9-.6-.8-.9-1.8-1.1-2.8,0-.5-.2-.9-.4-1.4-.5-1-1.9-1.6-3.3-2.2-.5-.2-1-.4-1.5-.6-3.8-1.8-6.3-5.2-8.7-8.4-.7-1-1.4-1.9-2.2-2.9-2-2.5-5-4.9-8.1-5.3l-1.6,2.3-2.1-1.4c0,.2-.1.5-.2.7-.1.7-.3,1.4-.6,2-1.3,2.8-4.3,3.9-7.2,4.6-12.6,3.1-25.6,4.6-38.5,4.6-4.1,0-8.1-.2-12.1-.7,0,0,0,0,0,0"/>
        <path id="Tracciato_3787" data-name="Tracciato 3787" class="cls-9" d="M616.2,873.7c2.3-2.7,5.8-4.2,9.3-3.8-.4-4.3,1.1-8.5,4-11.6.5-.5,1-1,1-1.3s-.9-.7-1.4-1c-1.4-.5-2.5-1.6-3.1-2.9-.3-1-.2-2,.2-2.9.3-.5.7-1,1.1-1.4-2-9.4-4.5-18.6-7.7-27.6-.9-2.7-1.9-5.2-3.8-6.8-.4-.3-.9-.6-1.3-.9-1-.6-1.8-1.2-2.6-2.1-.5-.5-.8-1.2-1-1.8-2.4,2.9-4.8,4.7-7.3,5.4.7,3.1.2,6.4-1.4,9.3l-.4-.2c4.7,14.8-3.8,31-2.2,46.6.1,1.2.4,2.6,1.4,3.3,1,.7,2.3.5,3.5.5,4.2,0,7,3.1,9.2,6.9-.2-2.7.7-5.5,2.4-7.6"/>
        <path id="Tracciato_3788" data-name="Tracciato 3788" class="cls-9" d="M769.8,814.3l.6,1.7c-3.9,1.3-7.7,0-11.3-1.1-1.2-.4-2.3-.7-3.4-1-2.8-.7-6.1-.2-7.9,1.1-.9.6-1.5,1.6-1.6,2.6l-.2,2.5c.1.3.3.5.4.8.8,1.3,1.4,2.7,1.6,4.2,0,1.8-.6,3.6-1.5,5.1l-4.5,8.2c-.6.8-.9,1.7-.9,2.7.1,1.2,1.3,2.1,3.2,3.2.6.3,1.1.7,1.6,1.1,2.4,1.7,4.1,4.2,4.8,7.1v.5c.4,1.3.9,3.1,1.6,3.2v1c1-1.3,2-2.7,2.7-4.2,7.1-13.3,23.2-21.1,38-18.4-8.4-6-16.9-12.2-23.2-20.3"/>
        <path id="Tracciato_3789" data-name="Tracciato 3789" class="cls-12" d="M747.7,853.8v-.5c-.7-2.1-1.9-4-3.7-5.3-.5-.3-.9-.6-1.4-.9-2-1.2-4.4-2.8-4.7-5.6,0-1.6.4-3.2,1.3-4.5l4.5-8.2c.7-1,1.1-2.2,1.2-3.4-.2-1-.6-2-1.2-2.9-.9-1.4-1.4-2.9-1.5-4.6-.9,0-1.8.4-2.4,1.1-.7,1-1.3,2.1-1.7,3.2-.4,1-.8,1.9-1.3,2.8-2.3,3.8-6.8,6.3-12.4,6.9-.7,0-1.4.1-2.1.2-1.9,0-3.8.3-5.5,1-.8.4-1.5.9-2.3,1.4-2.1,1.4-4.8,3.1-7.7,1.8-.8-.4-1.6-1-2.2-1.7-.3-.3-.6-.6-.9-.8-2.2-1.6-4.9-.6-9,1.4-2.6,1.2-5.5,2.6-8.3,2.6-1.2,0-2.4-.2-3.5-.7-.5-.2-.9-.5-1.3-.8-.4-.3-.9-.6-1.5-.7-1.1-.3-2.5.3-4,.9-.6.3-1.2.5-1.8.7-1.9.7-3.9.5-5.7-.4-.2.8-.4,1.5-.8,2.2-2.1,4.4-6.9,6.5-11.2,8.1-7.7,2.9-15.2,5.3-23,4.1h-.7c-1-.4-2-.4-3-.2-.4.1-.8.4-1,.8,0,.1-.1.3,0,.4.1.4.9.8,1.6,1.2,1.3.7,3.1,1.6,3,3.8-.1,1.3-.7,2.5-1.7,3.3-2.9,2.9-4,7.2-2.9,11.1l.8,2.9-2.9-1c-3.9-1.4-8.3.7-9.7,4.6-.7,2.1-.5,4.4.6,6.3l-2,1.2c.5,1.2,1.1,2.4,1.6,3.5,2.8,6.3,10.5,12.8,15.7,8.2-.7,3.7-3.5,6.6-7.1,7.4,8.7,3.9,18.7,1.6,28.2,2s20.7,6.3,20.1,15.8c-12.3-3.9-25.4-4.4-37.9-1.5,6.5,5.7,10.1,14.1,9.8,22.7-.1,3.3-.8,6.7,0,9.9s3.8,6.3,7.1,5.6c5.4-1.1,4.5-9.1,2.2-14.1,5.2,2.7,8.4,8.1,8.4,14,1.4-2.1,2.7-4.2,4.1-6.3,3.7,3.5,8.5,5.6,13.5,6.1-6.7-8.7-12-18.5-15.8-28.8,7,1.2,13.5,4,19,8.4-2.9-2.8-3-7.4-.2-10.3s7.4-3,10.3-.2c0,0,0,0,0,0,5.1-5.3-.3-14.3-6.9-17.5s-14.6-3.8-19.9-9c-.9-6-1.8-12.1-2.8-18.1,2.5-1.3,5.6-.2,6.9,2.3,0,0,0,.1,0,.2,2.5-.7,2.7-4.5,1-6.6s-4.3-3-6.4-4.6c-6.5-4.8-6.4-16.1.2-20.8,4.3.4,5.5,5.9,6.2,10.2s4.6,9.4,8.2,7.1c.2-2.5-.5-4.9-1.9-6.9l10,6.8-2.9-7.1,13.5,3.4c-5.7-3-9.9-8.3-11.5-14.5,9.7-5.5,20.7-8.3,31.9-8.2,8.9,0,18.8,2.8,23.1,10.5.8,1.4,1.5,3.1,3,3.9,1.1.6,2.5.5,3.6-.3-1.7-1.1-2.2-3.3-2.6-5"/>
        <path id="Tracciato_3790" data-name="Tracciato 3790" class="cls-12" d="M600.4,787.4c.3,1.4.7,2.9,1.5,3.3.4.2.9.3,1.4.3.7,0,1.3.2,1.9.4.9.4,1.8,1,2.6,1.6.9.7,1.5,1.2,2,1.1.2,0,.5-.1.7-.2.5-.2,1-.3,1.6-.4,2.1-.2,3.4,1.3,4.5,2.5,0,0,.2.2.3.3,2.2-1.8,5-2.7,7.9-2.4,3.2.2,6.2,1.8,8.1,4.5.6,1,1.2,2.1,1.7,3.2.5,1.4,1.3,2.8,2.4,3.8.9.6,1.9,1.1,2.9,1.5,2.2.9,5,2.1,5.3,5.1,0,.5,0,1,0,1.6,0,.3,0,.7,0,1,.3.6.8,1.2,1.3,1.6.9.7,1.5,1.6,2,2.7,1.6-.1,3.4-1.5,5-2.8,1.2-1,2.5-1.7,4-2.2-.5-.2-1-.4-1.5-.5l-1.8-.4,6.4-17.8c1.4-4,2.7-8.9,0-11.7-.5-.5-1.1-1-1.7-1.4-1.4-.8-2.6-2.1-3.3-3.5-1-2.4-.3-5.3,2-8,.4-.5.8-.9,1.2-1.4,1.1-1,2-2.3,2.6-3.6.3-.9.2-1.9-.3-2.7-.2-.4-.5-.6-.9-.7l.2-2.1c-1.5-2-3.6-3.5-6-4.4-1.4-.5-2.9-.8-4.3-1.1l-11.8-2.3-14.3-20.6c-3.7-5.4-5.4-10.2-4.9-14.1-8.9-1.8-18.2-.8-26.5,2.8h.2c-2,6.1-3.5,11.6-1.8,16.6.5,1.3,1,2.6,1.7,3.8,2.7,4.2,3.2,9.4,1.5,14-.6,2-.9,4.2-.8,6.3.3,2.3,1.5,4.4,2.9,6.7,1.8,3.1,3.7,6.3,3.1,10.1-.3,1.6-.9,3.1-1.8,4.5,1.4,1,2.3,2.5,2.7,4.2l.2.7Z"/>
        <path id="Tracciato_3791" data-name="Tracciato 3791" class="cls-12" d="M271.4,782.1c0-2.2-3.2-3.3-5.4-3.5-.7,0-1.4,0-2.1,0-2.5,0-5.4,0-7.8-1.7l-.6-.4-.3-4.4c-1-.5-2.9.3-4.2,1.4-2.1,1.7-5.1,4-8.3,2.7l-1.5-.6.6-1.5c1.1-2.6,1.1-5.4.1-8-8.2,0-17.3-.3-25.3-4.1-5.7-2.7-10.4-7.1-13.6-12.4-.3-.7-.8-1.3-1.3-1.7-.6-.2-1.1-.3-1.7-.3l-9.3-.2v-1.5c0-7.2-7.9-12-14.7-15.3l.9-1.9c-3.7-.5-7.2-1.5-10.7-2.8-5.8-2.2-11.3-5-16.6-8.3-1.9-1.2-3.9-2.6-6.2-2.8-4.9-.5-9.8,4.3-14.2,2.2-3.9-1.9-4-7.6-7-10.8-3.9-4.1-10.7-2.2-16.3-1.3s-12,.9-11.4-4.7c-1.1,1.6-3.8,1.1-5.1-.3s-1.8-3.5-2.6-5.3c-1.7-3.7-5.5-6.7-9.5-6.6s-7.9,4.2-7,8.2c-7-3-14.9-3.3-22.1-.8,2.1,4.1,4.2,8.3,4.1,12.9s-3.1,9.4-7.6,9.9c0,13-5.6,25.2-11.3,37-4.2,8.8-8.5,17.7-15.2,24.7-5.2,5.4-12,10-14.3,17.1,4.1,1.7,8.8,4.5,9.1,8.9.1,2.1-.8,4.2-1.7,6.1l-10.1,21.2c-1,2.1-2,4.7-.6,6.6.5.6,1.1,1.1,1.8,1.5,6.3,4.1,12.8,8.3,20.2,9.9,1.3.3,2.6.5,3.9.6-1.2-1.2-2.1-2.8-2.3-4.5-.6-3.4.5-6.9,3-9.4,3.6-3.6,8.7-4.6,13.8-5,.2-1.1,0-2.3-.5-3.3-.6-1.3-1.7-2.4-3.1-2.8l-3.3-1,2.9-1.8c8.5-5.6,12.5-16,9.9-25.8l-.7-2.6,8.9,2.1c.5-.6.6-1.8.8-3.4.1-1.9.2-4.1,1.7-5.8.8-.9,1.8-1.5,2.9-2,.3-.2.7-.3,1-.5,4.3-2.5,5.1-8.2,5.6-14.8.7-9.1,4-14.7,9.4-16.1,1.9-.4,3.8-.5,5.8-.2.9,0,1.8.1,2.6.1,2.1,0,4.5-.9,4.9-2.6.3-1.3-.5-2.7-1.5-4.3-1.6-2.6-3.5-5.7-6.4-7-1.3-.5-2.7-.8-4.1-1-.5,0-1.1-.2-1.6-.3-11.6-2.2-20.1-11.3-28.4-21.3l2.4-2c8,9.5,16,18.2,26.6,20.2.5,0,1,.2,1.5.3,1.7.2,3.3.6,4.8,1.2,3.8,1.7,6,5.3,7.8,8.3,1.2,2,2.4,4.2,1.8,6.6-.8,3.5-4.5,5-7.9,5.1-.9,0-2,0-2.9-.1-1.6-.2-3.1-.2-4.7.1-5.3,1.4-6.7,9-7,13.3-.5,5.8-1.1,13.8-7.2,17.3-.4.2-.8.4-1.1.6-.7.3-1.3.7-1.9,1.2-.7.9-.8,2.3-.9,3.9-.1,2.2-.3,5-2.8,6.3l-.5.3-5.2-1.2c1.5,9.6-2.2,19.2-9.7,25.3,1.1.8,1.9,1.9,2.5,3.2,1,2.1,1.2,4.5.3,6.7l-.4.9h-1c-4.8.4-9.7,1.2-12.9,4.3-1.7,1.8-2.5,4.3-2.1,6.7.2,1.5,1.1,2.8,2.4,3.5l-.8,1.7c3,.2,6,.6,8.9,1.2,5,1.2,10,4.4,11.2,9.4.7,3.1-.2,6.3-.3,9.4-.2,6.9,2.9,13.4,8.5,17.5l20.1-7.9,5.2,6.3c3.5-1.6,4.9-5.7,3.3-9.2,0-.1-.1-.3-.2-.4,1.6-2.9,6-2.4,8.6-.3s4.1,5.2,6.7,7.2c2.5,2,5.7,2.7,8.8,3.5l27.7,6.4c-2.3-7.5,1.9-15.4,9.4-17.7,3.8-1.2,7.9-.7,11.4,1.4,1.5.9,2.9,2.1,4.6,2.2,3.4.3,5.6-3.6,6.3-6.9s.9-7.2,3.5-9.4c4.9-4,14.5.7,17.6-4.9,2.2-4-1.9-8.5-3.3-12.8-2.5-7.7,3.9-15.5,10.8-19.7s15.1-7,20.1-13.4c2.1-2.7,3.6-6.1,6.4-8.1,2.1-1.3,4.4-2.2,6.8-2.6,14.1-2.9,31.3-3.6,38.6-16,.9-1.6,1.7-3.4,2.2-5.1h-.4Z"/>
        <path id="Tracciato_3792" data-name="Tracciato 3792" class="cls-12" d="M576.6,867.9c-1.9-5.8-7.8-9.3-13.1-12.2l-38.2-20.9c1.1-3.3,4.2-5.4,7.6-5.2-.6-3.6-4.8-5.6-8.4-5.7s-7.4.9-11,.4c-3.1-.5-6-1.7-8.5-3.5-8.5-5.7-14.3-14.7-16-24.8-.8-5-.6-10.3-3.1-14.7-5.6-9.9-22.3-11.3-24.6-22.5-.9-4.4,1-8.8,1.9-13.2s.3-9.8-3.6-12c10.2-2.9,20-6.9,29.4-11.8,1.9-4.4,0-9.9-2.2-15.3-.2-.6-.5-1.2-1-1.7-.9-.8-2.2-.4-4.4.3-1.8.7-3.6,1-5.5.9-1.5-.3-2.9-1-4.1-1.9l-13.8-9.3c-1.7-1.2-3.3-2.1-4.8-2.1-1.5,0-3,.8-4.6,1.6-2.4,1.3-5.2,2.7-8.1,1.3-.7-.4-1.4-.8-2.1-1.4-.9-.7-1.6-1.2-2-1s-.4,1.1-.4,2.3c0,1.7,0,3.7-1.5,5.1-2.1,1.8-4.6.6-6.5-.3-.7-.4-1.5-.7-2.3-.9.4,4.1-1.4,8.1-4.8,10.4l-1.6,1.1-.7-1.8c-1.2-3-3.1-5.6-5.5-7.7l-4.2,7.9-1.3-3c-.9-2-2.8-3.9-4.1-4.1-.3,0-.6,0-.7.3-.4.5-.3,1.5-.2,2.6.3,1.6.1,3.2-.6,4.6-.8,1.4-2.3,2.2-3.9,2-2.4-.1-4.5-1.5-5.6-3.6-.7-1.6-1.2-3.4-1.4-5.2-.1-1.1-.3-2.2-.6-3.2-.4-1.3-1.4-2.3-2.6-2.9-.2,0-.4-.1-.6-.1l1,14.9-2.8-2.2c-1.3-1-3.1-.9-4.4.2l-1.1,1.1-1.1-1.1c-4.2-4-10.5-4.8-15.5-1.9-.7,6.5-2,13-3.9,19.2l-.4,1.2-7.6-.6c0,1.1,1.1,2.4,3.3,4.5,2.4,2.3,5.2,4.9,4.9,8.4-.2,1.4-.7,2.8-1.5,4-.4.6-.7,1.2-.9,1.9-.5,1.3-.4,2.7.3,3.9,1.7,3.4,7,6,11,7.2l-.9,3c-2.3-.7-10.1-3.4-12.9-8.8-1-1.9-1.2-4.2-.4-6.3.3-.8.7-1.6,1.2-2.4.6-.8.9-1.7,1.1-2.7.2-2-1.9-4-3.9-5.9-2.6-2.4-5.8-5.5-3.5-9.2l.5-.8,7.2.6c3-10.2,4.3-20.9,3.8-31.6l-12.3,6.4-.6-1.6c-1.7-4.6,2.7-8.9,4.2-10.3l16.9-16.3,8.2-.5c-.2-14.4,6.1-28.2,17-37.6,0-.5-.3-.9-.7-1.2-1.6-1.3-3.7-1.9-5.7-1.7-.6,0-1.2.1-1.9.2-3.3.4-7,.8-9.9-1.6-2.2-1.9-2.8-4.5-3.4-7.1-.3-1.7-.9-3.4-1.8-4.9-2-2.6-5.5-2.8-9.6-2.9-2.6,0-5.1-.3-7.6-1-5.1-1.6-10-6.7-12.4-10.7-.8-1.7-1.4-3.5-1.6-5.4-.5-2.5-1-5.3-2.5-6-1-.3-2.1-.3-3.2,0h-.7c-2.7.4-5.4.2-8.1-.6-.9-.2-1.7-.7-2.4-1.3-.8-.9-1.2-2.1-1.2-3.3l-.6-5.1c0-.4-.1-1.3-.4-1.5-.2-.1-.4-.2-.7-.3-.2,0-.4-.1-.6-.2-2.7-1-4.1-3.5-5.4-6-.6-1.2-1.1-2.4-1.6-3.8-.9-2.6-2.2-5-3.7-7.3l.7-.6c-2.7.5-5.3,1.6-7.6,3.1-8.2,5.5-14.3,15-21.2,22-2.1,2.3-4.4,4.3-7,6-10.7,6.7-26.3,1.5-32.3-9.5-.4-.8-.9-1.5-1.5-2.1-1.9-1.6-5.1-.1-6.2,2.1s-.8,4.9-.6,7.4,0,5.3-1.6,7.1c-2.5,2.8-7,2.1-10.7,1.1-16.4-4.4-33.2-9.2-50.4-7.6l9.4,7.3-10,10.4c11,2.7,21.2,7.8,29.9,14.9,3.5,2.9,7,7.1,5.7,11.4,3.2,0,5.5,3.7,5.2,6.9s-2.3,6-4.2,8.6c3.6,6.3,10.4,9.9,17.7,9.6-3.1,11.7-4.3,23.9-3.4,36.1l-4.6-10.1c.9,11.4-7,21.4-14.4,30.1-4.1,4.7-8.4,9.7-14.2,11.8-2.5.9-5.1,1.3-7.7,1.1,6.6,3.4,13.3,8.2,14.1,15.4l6.4.2c2.4-.2,4.7,1.1,5.6,3.4,2.9,4.9,7.2,8.9,12.4,11.4,7.7,3.7,16.9,3.8,25,3.9h1s.4.9.4.9c1.4,2.9,1.8,6.2,1,9.4,1.3-.6,2.5-1.3,3.6-2.3,2.7-2.2,6.6-3.3,8.9-.8l.4.4.3,4.1c1.7.6,3.6.9,5.5.8.8,0,1.5,0,2.2,0,2.6,0,5,1.1,6.8,2.9.7-2.7,1.6-5.3,2.8-7.8,4.6-9.4,15.6-14.8,26-13.8s19.8,7.8,25,16.9c0,0,0,0,.1,0,0,.7,0,1.5.2,2.2.6,1.6,2.4,2.2,4,2.6,2.8.8,5.7,1.6,8.5,1.2s5.8-2.1,6.6-4.9c-1.5-3.3,5.4-7.4,9-7.3s8,.8,10.2-2.1c.8-1.2,1.1-2.7,2-3.8,1.9-2.5,5.6-2.2,8.8-2.5s6.9-2.8,5.7-5.7c6.4-2.9,13.4-3.2,17.9,2.1,1.7-5.9,7.1-9.9,13.3-9.8-1.2,8-.4,16.1,2.3,23.8,4.7,14.2,14.3,26.1,23.8,37.7,11.7,14.4,24,29.3,40.8,37.2,9.9,4.7,23.2,9.5,23.2,20.5,0,1.4-.2,2.9.5,4,1.3,2,4.4,1.4,6.8,1.6,4,.3,7.3,3.3,9.6,6.6,9.2,13,7.8,32.4-3.1,43.9l13.7,2.9c-3-12.5,20.4-19.6,17.3-32-1.4-5.5-7.8-8.6-9.6-14-2.5-7.4,5.9-15,13.6-14s13.4,8.1,15.6,15.6c5.7,2.2,11.1-5.7,9.2-11.5"/>
        <path id="Tracciato_3793" data-name="Tracciato 3793" class="cls-6" d="M430.4,697.1c0-.2.2-.4.3-.6.1-.2.3-.5.3-.8-.1,0-.9-.2-1.3-.3h-.4c-4.8-1.4-7-6-9-10.2-.3-.6-.6-1.2-.9-1.8-1.8-3.6-4.3-6.9-7.3-9.7-.7-.7-1.5-1.3-2.5-1.6-.4,0-.8-.1-1.2-.1-.6,0-1.3-.1-1.9-.3-1.1-.4-2.2-.9-3.2-1.7-.7-.7-1.6-1.1-2.5-1.2-.6,0-1.2.3-1.8.6-1.1.6-2.4.9-3.6.9-1-.2-1.9-.6-2.7-1.2l-.3-.2c-3.6-2.3-8.1-3-12.2-1.8-.1,1.8-.2,3.6,0,5.4v1.6c0,0-10.1.6-10.1.6l-16.1,15.5c-2,1.9-3.2,3.6-3.5,5l12.9-6.7.2,2.4c.3,4.5.3,9,0,13.5,5.5-2.3,11.8-1.3,16.5,2.5,1.4-.8,3-1,4.6-.7l-.8-11,.8-.5c1.2-.8,2.8-.9,4.1-.4,2.1.9,3.8,2.7,4.5,4.9.4,1.2.6,2.5.8,3.8.1,1.5.5,2.9,1,4.2.6,1.1,1.7,1.8,2.9,1.9.4,0,.9-.1,1.1-.5.3-.8.3-1.8.1-2.6-.2-1.5-.4-3.4.8-4.9.8-1.1,2.2-1.7,3.6-1.5,1.9.2,3.7,1.7,5,3.4l3.1-5.9,1.5,1.1c3,2.2,5.4,5,7,8.2,1.7-2,2.4-4.8,1.8-7.4l-.3-1.1.9-.6c2.1-1.5,4.5-.4,6.4.6.3.1.5.2.8.4,0-.3.1-.6.2-.8"/>
        <path id="Tracciato_3794" data-name="Tracciato 3794" class="cls-13" d="M373.3,615.2c1.2,1.8,2,3.9,2.3,6.1.5,2.2,1,4.2,2.3,5.4,1.8,1.5,4.6,1.2,7.5.9.7,0,1.3-.1,2-.2,2.6-.2,6.1.5,8.2,2.6,1.2,1.1,1.7,2.7,1.6,4.3v.7c0,0-.6.4-.6.4-8.6,7.2-14.3,17.3-15.9,28.4,4.7-.9,9.5,0,13.5,2.5l.3.2c.4.3.9.6,1.4.7.7,0,1.3-.2,1.9-.6.9-.5,2-.8,3-.9,1.6,0,3.2.7,4.4,1.8.6.5,1.4.9,2.1,1.2.4,0,.8.1,1.3.2.6,0,1.2,0,1.7.2,1.5.4,2.8,1.3,3.9,2.4.5.5,1,1,1.6,1.6l33.8,1.1c3.5.2,6.9.1,10.4-.2,1.7-.2,3.5-.6,5.2-.9,4.8-1,9.8-2,14.4-.4.4-3.2,0-6.5-1.1-9.6l-.5-1.5,1.5-.5c2.6-1,4.4-3.3,4.7-6.1v-1.4c.1,0,12.4-.4,12.4-.4-8-9.1-14.4-19.6-19-30.8-2.1-5.2-3.8-10.5-5.4-15.7-.6-2-1.3-4.1-2-6.1l-1-2.9,3,1c5.3,1.7,10.9,2,16.3.7,2.8-.7,5.5-1.6,8.1-2.7l21.2-8c1.9-11.5,1.1-23.3-2.5-34.4-.4-1.1-.8-2.3-1.2-3.4-1.3-3.4-2.3-6.9-2.9-10.5-.8-6.3.6-12.6,3.9-18-1.9-2.2-3.2-4.9-3.6-7.8l-8.1-.3c.6-5.9-6.8-9.4-12.7-8.8s-11.6,3.4-17.4,2.5c-9.7-1.5-17.2-13-26.7-10.4-1.2-6.5-2.4-13.2-1.4-19.8s4.6-13.1,10.6-15.9c3.9-1.8,9.3-2.6,10.3-6.8,1.3-5.9-7.9-12.6-3.3-16.5-1.7-1.6-4.1-2.2-6.3-1.6l-2.6,5.8c-8-3.2-16.8-4-25.3-2.2.8,12.9,1.6,25.8,2.4,38.7.7,10.3,1.5,21.2,7.4,29.7-4.6,3.5-7.9,8.5-9.3,14.1-7.3-6.7-16.4-11.1-26.2-12.6l-1.6,8.5,1.6.4c-.2.6.5,1.3,1.5,2.3,1.3,1,2.2,2.4,2.6,4,.1.9.1,1.7,0,2.6l-2.9,17.8c-.4,2.7-1.7,6.1-4.1,7.6-1.1.7-2.6.9-3.8.5-.5-.2-1-.4-1.4-.7-.3-.2-.7-.4-1-.4-.4,0-.8.7-1.3,1.8-.4,1.1-1.1,2.1-1.9,2.9-1.8,1.6-4,1.4-6,1.3-1.9-.1-3.1-.1-3.7.6-.4.5-.7,1.1-.8,1.8-.2.7-.5,1.4-.8,2.1-1.2,2-3.3,3-5.1,3.9-.8.4-1.6.8-2.4,1.3.5.8.9,1.7,1.3,2.4l-2.7,1.3c0,0,0,.2,0,.3.7,7.3-.3,14.7-3.1,21.5-.4,1.1-.9,2.1-1.4,3.2-2.1,4.7-4.2,9.5-3,13.8,3.9.2,7.7.8,10.2,4.1"/>
        <path id="Tracciato_3795" data-name="Tracciato 3795" class="cls-2" d="M202.7,451.4c-1,0-1.9-.4-2.5-1.2-1-1.4-1.3-3.2-.8-4.8.2-.5.4-1,.6-1.4.5-.8.7-1.7.6-2.6-.2-.8-1.4-1.2-2.4-1.2-1.1,0-2.2.4-3.3.8l-1.1.4c-3.6,1.2-7.5,1.4-11.3.8-1-.1-1.9-.5-2.7-1.1-1.4-1.2-2-3.3-2.6-5.3-.2-1-.6-2-1-2.9-.1-.3-.3-.5-.6-.7l-2.1-2.3c.9-.9,2.4-1.1,3.5-.5.8.4,1.4,1.1,1.9,1.9.6,1.2,1.1,2.4,1.4,3.7.4,1.4.9,3.2,1.6,3.7.4.2.8.4,1.2.4,3.3.6,6.6.3,9.8-.7l1-.3c1.4-.5,2.8-.9,4.2-1,2.2,0,4.7,1,5.5,3.5.3,1.6,0,3.3-.8,4.7-.2.4-.3.8-.5,1.2-.2.6-.1,1.3.3,1.9l.3,3.1c-.1,0-.2,0-.4,0"/>
        <path id="Tracciato_3796" data-name="Tracciato 3796" class="cls-2" d="M177.6,430.8l-2-2.5c1.3-.9,3-1.2,4.6-1,.7,0,1.5,0,2.2,0,.6-.2,1.1-.6,1.6-1,1.8-1.3,3.5-2.8,5-4.5.4-.5.8-.9,1.3-1.3.5-.3,1-.4,1.5-.5l3.3-.8.7,3.1-3.3.8c-.2,0-.4,0-.6.2-.2.1-.3.3-.5.5-1.7,1.9-3.5,3.6-5.6,5.1-.8.6-1.6,1.2-2.5,1.5-1.1.3-2.2.4-3.3.2-.8-.2-1.7,0-2.4.3"/>
        <path id="Tracciato_3797" data-name="Tracciato 3797" class="cls-13" d="M731.3,898l-3.2.6c4.9,1.4,7.7,6.5,6.3,11.3-.2.5-.4,1.1-.6,1.6,1.4,3.9,6.8,5.2,10.6,3.6l-3.8,2.5c3.1,1.7,7.2-.9,10.4.5,2.7,1.2,3.4,4.7,5.7,6.5,2.8,2,6.7,1.5,8.7-1.3.3-.4.5-.7.7-1.1.4-1.1.5-2.4,1.3-3.4,1.9-2.4,5.8-.5,7.6,2s3.1,5.8,6,6.6c2.1.6,4.4-.4,6.4-1.4l13-6.4c2.3-1.6,5.2-1.9,7.7-.8l9.1,2.6c7.8-3.2,16.7-1.2,25.1-1.7,6.2-.4,12.1-2.3,17.4-5.4,1.1-.8,2.4-1.4,3.7-1.8,1.7-.3,3.4-.2,5.1.1,7.6,1,15.2.6,22.7-1.1,1.4-.3,3-.8,3.8-2.1,1.2-1.9,0-4.5.8-6.6.4-1.1,1.3-2,1.8-3.1,2-4.8-5.4-11.2-1.4-14.6l3.6-1.3c.7-2.3-1.4-4.5-3.6-5.6s-4.7-1.9-5.8-4.1c-1.1-2.1-.3-4.7-.7-7-.8-4.9-6.5-7.6-11.4-7.2s-9.4,2.9-14,4.7c-7.3,2.9-15.2,3.6-22.9,2.2-3.5-.8-7-1.9-10.4-3.2l-16.6-6.1c-6.2-2.3-12.6-4.6-19.1-4-11,1-20.2,9.8-31.2,10.3-1.5,0-3.1,0-4.2.9-1.7,1.3-1.6,4-3.2,5.4-7.9,7-21.7.4-29.9,5.6-3.2,2-4.6,5-2.4,8.7,1.9,3.3,4.2,1.8,6,4.2.5.7,1.4,9.3,1,9.3"/>
        <path id="Tracciato_3798" data-name="Tracciato 3798" class="cls-9" d="M819.9,927.2c-1,.7-2.5.5-3.3,1.3-.4.6-.6,1.2-.7,1.9-.4,3.2-.7,6.4-1.1,9.6-.2,2,0,4.7,1.9,5.3.7.2,1.5.1,2.1.6,1.1,1-.1,2.7-1.2,3.7-2.6,2.4-4.4,5.6-5,9.2-.5,2.9-.2,6.2,1.7,8.5s5.5,3.4,8,1.7c2.2-1.4,3.2-4.5,5.8-5,1.3-.2,2.6.3,3.9.3,1.3,0,2.5-.4,3.6-1,11.4-5,23.8-10.8,29.1-22.1,2.3-5,3.2-10.8,7-14.8,1.4-1.5,3.3-2.7,4.6-4.2s2.3-3.8,1.6-5.8c-7.3-3-15.3,1.6-22.9,4.1-7.2,2.3-14.9,2.6-22.5,2.3-2.1,0-7.3-1.6-9.1-.8-2.6,1.1-1.6,4-3.6,5.3"/>
      </g>
    </g>
  </g>
</svg>