<svg xmlns="http://www.w3.org/2000/svg" width="112.744" height="121.428" viewBox="0 0 112.744 121.428">
  <g id="Dataset_ico" data-name="Dataset ico" transform="translate(0.4)">
    <path id="Tracciato_3866" data-name="Tracciato 3866" d="M39.991,0h6.154c1.321.109,2.643.217,3.964.344A44.54,44.54,0,0,1,61.6,2.751a16.734,16.734,0,0,1,6.1,3.566A5.9,5.9,0,0,1,69.623,10.7q-.054,18.708,0,37.415a4.724,4.724,0,0,1-.724,2.48,9.329,9.329,0,0,1-3.638,3.276,35.419,35.419,0,0,1-12.436,3.783,68.4,68.4,0,0,1-13.467.579,53.107,53.107,0,0,1-13.974-2.407,18.17,18.17,0,0,1-6.77-3.62,5.752,5.752,0,0,1-2.064-4.435q.054-18.518,0-37.017a5.891,5.891,0,0,1,1.973-4.471,17.1,17.1,0,0,1,6.1-3.548A46.313,46.313,0,0,1,37.24.235l2.77-.217Zm2.19,18.083c2.245-.109,4.471-.163,6.7-.326a46.063,46.063,0,0,0,11.585-2.245,17.827,17.827,0,0,0,4.924-2.426,8.072,8.072,0,0,0,1.032-.887,2.786,2.786,0,0,0-.145-4.381A13.521,13.521,0,0,0,61.8,5.159,45.356,45.356,0,0,0,48.046,2.317a68.132,68.132,0,0,0-13.3.326A41.78,41.78,0,0,0,24.261,5.159,13.521,13.521,0,0,0,19.79,7.82a2.786,2.786,0,0,0-.145,4.381,6.85,6.85,0,0,0,1.032.887,20.6,20.6,0,0,0,6.661,2.969,59.935,59.935,0,0,0,14.789,2.027ZM18.668,39.606V47.9a3.379,3.379,0,0,0,.869,2.281,10.807,10.807,0,0,0,3.783,2.57,44.361,44.361,0,0,0,14.97,3.294,68,68,0,0,0,10.861-.109A45.293,45.293,0,0,0,61.514,53.29a14.517,14.517,0,0,0,4.435-2.5,3.6,3.6,0,0,0,1.484-2.643V40.058c0-.145-.036-.272-.054-.471a20.961,20.961,0,0,1-7.512,3.819,49.323,49.323,0,0,1-11.114,1.937,68.818,68.818,0,0,1-19.079-1.068,27.428,27.428,0,0,1-9.177-3.4c-.6-.38-1.158-.815-1.828-1.285Zm0-12.58c0,2.607.036,5.267,0,7.91a3.556,3.556,0,0,0,1.521,3.132,19.458,19.458,0,0,0,3.1,1.9,35.447,35.447,0,0,0,10.263,2.824A66.627,66.627,0,0,0,53.169,42.7,37.263,37.263,0,0,0,62.835,40a10.9,10.9,0,0,0,3.656-2.444,3.065,3.065,0,0,0,.941-2.136V27.405c0-.163-.018-.308-.018-.344-1.285.742-2.516,1.575-3.837,2.226a34.739,34.739,0,0,1-9.684,2.788,66.461,66.461,0,0,1-11.06.8,66.475,66.475,0,0,1-10.209-.742,35.655,35.655,0,0,1-10.191-2.878c-1.3-.634-2.5-1.466-3.765-2.208Zm0-12.888v.543c0,2.57.036,5.123,0,7.693a3.483,3.483,0,0,0,1,2.516,11.4,11.4,0,0,0,3.584,2.389A36.748,36.748,0,0,0,33.42,30.066a65.569,65.569,0,0,0,19.911-.109,37.023,37.023,0,0,0,9.395-2.625,10.665,10.665,0,0,0,3.837-2.588,3,3,0,0,0,.869-2.045V14.662c0-.145-.018-.308-.036-.525a20.417,20.417,0,0,1-6.933,3.638,49.805,49.805,0,0,1-12.4,2.19,69.574,69.574,0,0,1-17.015-.833c-4.417-.815-8.671-2.027-12.363-5Z" transform="translate(12.922)" fill="#ef2b89"/>
    <rect id="Rettangolo_644" data-name="Rettangolo 644" width="30.989" height="37.958" rx="1.28" transform="translate(0.6 68.26)" fill="none" stroke="#ef2b89" stroke-linecap="round" stroke-linejoin="round" stroke-width="2"/>
    <g id="Raggruppa_584" data-name="Raggruppa 584" transform="translate(4.003 75.899)">
      <line id="Linea_145" data-name="Linea 145" x2="24.183" fill="none" stroke="#ef2b89" stroke-linecap="round" stroke-linejoin="round" stroke-width="1.2"/>
      <line id="Linea_146" data-name="Linea 146" x2="24.183" fill="none" stroke="#ef2b89" stroke-linecap="round" stroke-linejoin="round" stroke-width="1.2"/>
      <line id="Linea_147" data-name="Linea 147" x2="24.183" transform="translate(0 5.666)" fill="none" stroke="#ef2b89" stroke-linecap="round" stroke-linejoin="round" stroke-width="1.2"/>
      <line id="Linea_148" data-name="Linea 148" x2="24.183" transform="translate(0 11.35)" fill="none" stroke="#ef2b89" stroke-linecap="round" stroke-linejoin="round" stroke-width="1.2"/>
      <line id="Linea_149" data-name="Linea 149" x2="24.183" transform="translate(0 11.35)" fill="none" stroke="#ef2b89" stroke-linecap="round" stroke-linejoin="round" stroke-width="1.2"/>
      <line id="Linea_150" data-name="Linea 150" x2="24.183" transform="translate(0 17.015)" fill="none" stroke="#ef2b89" stroke-linecap="round" stroke-linejoin="round" stroke-width="1.2"/>
      <line id="Linea_151" data-name="Linea 151" x2="24.183" transform="translate(0 22.681)" fill="none" stroke="#ef2b89" stroke-linecap="round" stroke-linejoin="round" stroke-width="1.2"/>
    </g>
    <rect id="Rettangolo_645" data-name="Rettangolo 645" width="30.989" height="37.958" rx="1.28" transform="translate(80.354 68.26)" fill="none" stroke="#ef2b89" stroke-linecap="round" stroke-linejoin="round" stroke-width="2"/>
    <g id="Raggruppa_585" data-name="Raggruppa 585" transform="translate(83.757 75.899)">
      <line id="Linea_152" data-name="Linea 152" x2="24.183" fill="none" stroke="#ef2b89" stroke-linecap="round" stroke-linejoin="round" stroke-width="1.2"/>
      <line id="Linea_153" data-name="Linea 153" x2="24.183" fill="none" stroke="#ef2b89" stroke-linecap="round" stroke-linejoin="round" stroke-width="1.2"/>
      <line id="Linea_154" data-name="Linea 154" x2="24.183" transform="translate(0 5.666)" fill="none" stroke="#ef2b89" stroke-linecap="round" stroke-linejoin="round" stroke-width="1.2"/>
      <line id="Linea_155" data-name="Linea 155" x2="24.183" transform="translate(0 11.35)" fill="none" stroke="#ef2b89" stroke-linecap="round" stroke-linejoin="round" stroke-width="1.2"/>
      <line id="Linea_156" data-name="Linea 156" x2="24.183" transform="translate(0 11.35)" fill="none" stroke="#ef2b89" stroke-linecap="round" stroke-linejoin="round" stroke-width="1.2"/>
      <line id="Linea_157" data-name="Linea 157" x2="24.183" transform="translate(0 17.015)" fill="none" stroke="#ef2b89" stroke-linecap="round" stroke-linejoin="round" stroke-width="1.2"/>
      <line id="Linea_158" data-name="Linea 158" x2="24.183" transform="translate(0 22.681)" fill="none" stroke="#ef2b89" stroke-linecap="round" stroke-linejoin="round" stroke-width="1.2"/>
    </g>
    <rect id="Rettangolo_646" data-name="Rettangolo 646" width="30.989" height="37.958" rx="1.28" transform="translate(40.477 82.47)" fill="none" stroke="#ef2b89" stroke-linecap="round" stroke-linejoin="round" stroke-width="2"/>
    <g id="Raggruppa_586" data-name="Raggruppa 586" transform="translate(43.88 90.108)">
      <line id="Linea_159" data-name="Linea 159" x2="24.183" fill="none" stroke="#ef2b89" stroke-linecap="round" stroke-linejoin="round" stroke-width="1.2"/>
      <line id="Linea_160" data-name="Linea 160" x2="24.183" fill="none" stroke="#ef2b89" stroke-linecap="round" stroke-linejoin="round" stroke-width="1.2"/>
      <line id="Linea_161" data-name="Linea 161" x2="24.183" transform="translate(0 5.666)" fill="none" stroke="#ef2b89" stroke-linecap="round" stroke-linejoin="round" stroke-width="1.2"/>
      <line id="Linea_162" data-name="Linea 162" x2="24.183" transform="translate(0 11.35)" fill="none" stroke="#ef2b89" stroke-linecap="round" stroke-linejoin="round" stroke-width="1.2"/>
      <line id="Linea_163" data-name="Linea 163" x2="24.183" transform="translate(0 11.35)" fill="none" stroke="#ef2b89" stroke-linecap="round" stroke-linejoin="round" stroke-width="1.2"/>
      <line id="Linea_164" data-name="Linea 164" x2="24.183" transform="translate(0 17.015)" fill="none" stroke="#ef2b89" stroke-linecap="round" stroke-linejoin="round" stroke-width="1.2"/>
      <line id="Linea_165" data-name="Linea 165" x2="24.183" transform="translate(0 22.681)" fill="none" stroke="#ef2b89" stroke-linecap="round" stroke-linejoin="round" stroke-width="1.2"/>
    </g>
    <line id="Linea_166" data-name="Linea 166" y2="25.179" transform="translate(55.99 57.291)" fill="none" stroke="#ef2b89" stroke-linecap="round" stroke-linejoin="round" stroke-width="2"/>
    <path id="Tracciato_3867" data-name="Tracciato 3867" d="M17.74,50.1s14.3,2.317,14.771-18.246" transform="translate(13.886 25.803)" fill="none" stroke="#ef2b89" stroke-linecap="round" stroke-linejoin="round" stroke-width="2"/>
    <path id="Tracciato_3868" data-name="Tracciato 3868" d="M50.991,50.1S36.691,52.413,36.22,31.85" transform="translate(28.857 25.803)" fill="none" stroke="#ef2b89" stroke-linecap="round" stroke-linejoin="round" stroke-width="2"/>
  </g>
</svg>
