<svg xmlns="http://www.w3.org/2000/svg" xmlns:xlink="http://www.w3.org/1999/xlink" width="94.621" height="95.5" viewBox="0 0 94.621 95.5">
  <defs>
    <clipPath id="clip-path">
      <rect id="Rettangolo_541" data-name="Rettangolo 541" width="94.621" height="95.5" fill="none"/>
    </clipPath>
  </defs>
  <g id="FedUser_ico" data-name="FedUser ico" transform="translate(3 4)">
    <g id="Raggruppa_472" data-name="Raggruppa 472" transform="translate(-3 -4)" clip-path="url(#clip-path)">
      <path id="Tracciato_2869" data-name="Tracciato 2869" d="M38.054,43.392A21.345,21.345,0,1,0,16.71,22.046,21.345,21.345,0,0,0,38.054,43.392ZM53,48.728H50.212a29.032,29.032,0,0,1-24.313,0H23.114A22.419,22.419,0,0,0,.7,71.139v6.937a8.007,8.007,0,0,0,8,8H67.4a8.006,8.006,0,0,0,8-8V71.139A22.417,22.417,0,0,0,53,48.728Z" transform="translate(2.961 3.893)" fill="none" stroke="#ef2b89" stroke-miterlimit="10" stroke-width="4"/>
      <path id="Tracciato_2870" data-name="Tracciato 2870" d="M47.048,67.306l-6-3.737A3.008,3.008,0,0,1,39.8,60.008l2.363-6.665a3.006,3.006,0,0,0,.153-1.355l-.822-7.024A3.009,3.009,0,0,1,43.5,41.77l6.685-2.308a3.015,3.015,0,0,0,1.155-.725l4.98-5.022a3.007,3.007,0,0,1,3.748-.423L66.04,37.08a3.023,3.023,0,0,0,1.287.451l7.031.761a3.009,3.009,0,0,1,2.667,2.667l.762,7.031a3,3,0,0,0,.451,1.287l3.788,5.972A3.011,3.011,0,0,1,81.6,59l-5.022,4.98a2.991,2.991,0,0,0-.725,1.154l-2.308,6.685a3.008,3.008,0,0,1-3.194,2.008L63.33,73a3.009,3.009,0,0,0-1.355.152L55.31,75.521a3.007,3.007,0,0,1-3.559-1.247l-3.737-6a3,3,0,0,0-.965-.965" transform="translate(12.126 11.457)" fill="#1e2a46"/>
      <path id="Tracciato_2871" data-name="Tracciato 2871" d="M78.534,54.517l-3.255-5.135a2.591,2.591,0,0,1-.388-1.107l-.655-6.045a2.586,2.586,0,0,0-2.293-2.293L65.9,39.282a2.591,2.591,0,0,1-1.107-.388l-5.135-3.257A2.588,2.588,0,0,0,56.433,36l-4.281,4.318a2.588,2.588,0,0,1-.993.624l-5.746,1.983a2.586,2.586,0,0,0-1.725,2.746l.705,6.039a2.609,2.609,0,0,1-.131,1.165L42.23,58.608a2.582,2.582,0,0,0,1.071,3.06l5.161,3.213a2.608,2.608,0,0,1,.83.829L52.5,70.872a2.588,2.588,0,0,0,3.062,1.071l5.73-2.032a2.593,2.593,0,0,1,1.165-.131l6.04.707a2.589,2.589,0,0,0,2.746-1.726l1.983-5.747a2.566,2.566,0,0,1,.625-.993l4.317-4.281a2.585,2.585,0,0,0,.362-3.222M57.887,62.973l-9.013-9.012,2.031-2.031,6.982,6.982L70.112,46.685l2.031,2.031Z" transform="translate(12.704 12.025)" fill="#ef2b89"/>
    </g>
  </g>
</svg>
