<svg id="Services_ICO" data-name="Services ICO" xmlns="http://www.w3.org/2000/svg" xmlns:xlink="http://www.w3.org/1999/xlink" width="110.334" height="108" viewBox="0 0 110.334 108">
  <defs>
    <clipPath id="clip-path">
      <rect id="Rettangolo_313" data-name="Rettangolo 313" width="110.334" height="108" fill="none" stroke="#707070" stroke-width="3"/>
    </clipPath>
  </defs>
  <g id="Raggruppa_155" data-name="Raggruppa 155" transform="translate(0 0)" clip-path="url(#clip-path)">
    <path id="Tracciato_2487" data-name="Tracciato 2487" d="M8.006,42.1a6.018,6.018,0,0,1,8.914.024c6.875,6.75,13.692,13.562,20.652,20.226A5.993,5.993,0,0,1,37.822,71c-2.242,2.376-4.645,4.6-7.007,6.865-.876.837-1.7.712-2.744-.314Q20.03,69.63,11.993,61.7q-4.848-4.776-9.7-9.55c-.546-.539-1.065-1.106-1.6-1.661C.7,50.069,5.562,44.464,8.006,42.1Z" transform="translate(0.496 28.387)" fill="none" stroke="#ef2b89" stroke-linecap="round" stroke-miterlimit="10" stroke-width="3"/>
    <path id="Tracciato_2488" data-name="Tracciato 2488" d="M29.55,49.359a5.459,5.459,0,0,0,.946.061q10.456,0,20.912,0c5.038-.01,8.145-3.387,7.708-8.384A6.618,6.618,0,0,0,56.9,36.778" transform="translate(20.899 26.01)" fill="none" stroke="#ef2b89" stroke-linecap="round" stroke-linejoin="round" stroke-width="3"/>
    <path id="Tracciato_2489" data-name="Tracciato 2489" d="M11.782,46.125c2.627-2.489,5.2-5.057,8-7.338a13.451,13.451,0,0,1,8.77-2.843c3.377.019,6.757.009,10.127.178A12.061,12.061,0,0,1,45.319,38.6a13.869,13.869,0,0,0,9.076,2.791c3.2-.1,6.407,0,9.61-.031a8.05,8.05,0,0,1,5.461,1.868,1.116,1.116,0,0,0,1,.106c2.5-1.289,5.006-2.559,7.418-3.992a7.922,7.922,0,0,0,2.185-2.221,26.169,26.169,0,0,0,1.846-3.186,11.968,11.968,0,0,1,15.336-5.248c3.418,1.555,4.512,4.888,2.667,8.132a95.377,95.377,0,0,1-25.192,29.3,16.793,16.793,0,0,1-10.573,3.565c-8.309-.039-16.617-.05-24.926.024" transform="translate(8.333 19.562)" fill="none" stroke="#ef2b89" stroke-linecap="round" stroke-linejoin="round" stroke-width="3"/>
    <path id="Tracciato_2490" data-name="Tracciato 2490" d="M26.88,50.125a39.247,39.247,0,0,0-1.386-4.019c-.256-.512-1.181-.814-1.857-.97-1.368-.312-2.773-.466-4.164-.676-3.232-.487-4.9-2.4-4.91-5.646,0-.492,0-.983,0-1.475s0-.985,0-1.477a5.451,5.451,0,0,1,5.018-5.748c1.461-.215,2.921-.447,4.381-.664A2.556,2.556,0,0,0,25.842,28c1.383-2.252,1.052-4.1-.809-5.876A16.712,16.712,0,0,1,23.218,19.8a5.057,5.057,0,0,1,.37-6.658c1.1-1.181,2.226-2.347,3.377-3.483a4.246,4.246,0,0,1,5.523-.246c1.439,1.011,2.865,2.042,4.258,3.116a2.766,2.766,0,0,0,2.834.314c2.231-.695,3.389-1.967,3.389-4.364A21.387,21.387,0,0,1,43.5,4.939,4.951,4.951,0,0,1,48.038.779,44.85,44.85,0,0,1,52.683.746a5.284,5.284,0,0,1,4.973,4.388c.3,1.694.562,3.394.818,5.1a1.883,1.883,0,0,0,1.376,1.682,2.8,2.8,0,0,1,.782.311c1.757,1.224,3.251.76,4.731-.574a29.37,29.37,0,0,1,2.971-2.187,5.322,5.322,0,0,1,6.877.505q1.414,1.342,2.762,2.759a5.068,5.068,0,0,1,.493,6.655c-1.012,1.436-2.067,2.843-3.136,4.237a2.157,2.157,0,0,0-.3,2.44c1.484,3.254.809,2.948,4.384,3.471,1.149.167,2.293.362,3.437.563a5,5,0,0,1,4.162,4.664c.075,1.542.072,3.094.007,4.637A5.288,5.288,0,0,1,82.49,44.23c-1.637.227-3.278.439-4.924.609a1.957,1.957,0,0,0-1.922,1.5.771.771,0,0,1-.063.2,3.844,3.844,0,0,0,.287,5.139" transform="translate(10.299 0.496)" fill="none" stroke="#ef2b89" stroke-linecap="round" stroke-miterlimit="10" stroke-width="3"/>
    <path id="Tracciato_2491" data-name="Tracciato 2491" d="M60.728,29.219a17.743,17.743,0,0,1-35.48-.029,17.745,17.745,0,0,1,35.48.029Z" transform="translate(17.856 8.392)" fill="none" stroke="#ef2b89" stroke-miterlimit="10" stroke-width="3"/>
  </g>
</svg>
